<svg width="546" height="542" viewBox="0 0 546 542" fill="none" xmlns="http://www.w3.org/2000/svg">
<path d="M352.11 487.83L332.16 493.23" stroke="#BBB9B7" stroke-width="2"/>
<path d="M330.11 493.77C328.643 493.583 327.663 493.847 327.17 494.56" stroke="#BBB9B7" stroke-width="2"/>
<path d="M81.8798 385.7L78.3398 378.96" stroke="#BBB9B7" stroke-width="2"/>
<path d="M191.39 192.3C191.35 194.6 188.75 197.43 187.21 198.96C181.06 205.05 174.61 211.24 167.89 216.96C162.844 221.253 158.047 225.717 153.5 230.35C151.54 232.35 149.26 233.84 147.32 235.81C147.197 235.936 147.101 236.086 147.039 236.25C146.977 236.415 146.949 236.591 146.959 236.767C146.968 236.943 147.014 237.115 147.094 237.272C147.173 237.429 147.284 237.568 147.42 237.68L147.79 237.99C148.45 238.537 149.11 238.54 149.77 238C157.81 231.527 165.77 224.66 173.65 217.4C178.7 212.75 184.33 208.73 189.34 204.09C198.4 195.69 208.05 187.67 216.7 178.99C223.71 171.95 231.32 165.97 238.16 158.9C239.81 157.19 241.19 155.19 242.97 153.64C249.51 147.91 255.43 141.59 261.81 135.8C267.724 130.44 273.444 125.107 278.97 119.8C279.231 119.55 279.576 119.407 279.937 119.4C280.299 119.392 280.649 119.521 280.92 119.76C293.387 130.847 305.53 142.33 317.35 154.21C325.57 162.46 333.17 169.61 341.31 176.91C345.14 180.35 348.55 184.87 352.25 188C355.82 191.03 359.13 194.23 362.78 197.05C363.954 197.957 365.19 199.023 366.49 200.25C376.957 210.103 388.137 219.903 400.03 229.65C401.157 230.57 402.134 231.563 402.96 232.63C403.874 233.797 405.09 234.65 406.61 235.19C406.944 235.303 407.227 235.497 407.46 235.77C408.734 237.243 410.344 237.977 412.29 237.97C412.388 237.971 412.484 237.948 412.572 237.905C412.659 237.862 412.735 237.8 412.795 237.722C412.854 237.644 412.894 237.554 412.912 237.458C412.931 237.363 412.927 237.264 412.9 237.17C412.74 236.603 412.407 236.167 411.9 235.86C408.6 233.86 406.3 231.05 403.48 228.48C398.827 224.233 394.397 220.09 390.19 216.05C389.81 215.683 389.424 215.31 389.03 214.93C385.79 211.817 382.374 208.663 378.78 205.47C369.687 197.403 361.557 189.16 354.39 180.74C353.93 180.2 353.85 179.61 354.15 178.97C354.29 178.67 354.364 178.353 354.37 178.02L354.43 172.29" stroke="#4E4C4A" stroke-width="2"/>
<path d="M338.95 154.46L338.69 162.54C338.687 162.677 338.644 162.809 338.565 162.921C338.487 163.033 338.377 163.119 338.249 163.168C338.122 163.218 337.983 163.228 337.849 163.198C337.716 163.168 337.594 163.099 337.5 163C334.98 160.4 332.31 157.84 329.49 155.32C326.717 152.847 324.054 150.307 321.5 147.7C308.194 134.147 294.534 120.78 280.52 107.6C280.4 107.49 280.242 107.431 280.079 107.437C279.916 107.442 279.762 107.512 279.65 107.63C273.4 114.32 266.54 120.2 260.28 126.63C257.08 129.917 253.794 133.317 250.42 136.83C247.714 139.637 244.9 142.423 241.98 145.19C239.014 147.99 236.074 150.697 233.16 153.31C229.587 156.51 225.994 160.133 222.38 164.18C216.59 170.66 209.37 176.03 203.15 182.38C200.75 184.827 198.367 187.263 196 189.69C195.886 189.805 195.749 189.895 195.598 189.953C195.447 190.011 195.285 190.036 195.123 190.027C194.961 190.017 194.803 189.974 194.659 189.898C194.516 189.823 194.39 189.718 194.29 189.59C194.244 189.53 194.294 189.167 194.44 188.5" stroke="#4E4C4A" stroke-width="2"/>
<path d="M338.95 154.46C339.04 157.22 338.26 162.96 339.6 165C340.62 166.56 342.446 168.38 345.08 170.46C346.093 171.267 347.243 171.807 348.53 172.08C350.556 172.513 352.24 173.447 353.58 174.88C353.893 175.213 354.08 175.153 354.14 174.7L354.43 172.29" stroke="#BBB9B7" stroke-width="2"/>
<path d="M191.389 192.3C192.022 192.547 192.605 192.163 193.139 191.15C193.859 189.777 194.292 188.893 194.439 188.5" stroke="#BBB9B7" stroke-width="2"/>
<path d="M352.306 177.941C352.383 177.862 352.385 177.713 352.313 177.503C352.242 177.294 352.097 177.028 351.889 176.721C351.68 176.414 351.411 176.071 351.097 175.713C350.784 175.354 350.431 174.987 350.06 174.633C349.31 173.916 348.53 173.293 347.891 172.901C347.252 172.508 346.807 172.378 346.653 172.539C346.576 172.618 346.574 172.767 346.646 172.977C346.717 173.186 346.862 173.452 347.07 173.759C347.279 174.067 347.548 174.409 347.862 174.767C348.175 175.126 348.528 175.493 348.899 175.847C349.649 176.564 350.429 177.187 351.068 177.58C351.707 177.972 352.152 178.102 352.306 177.941Z" stroke="#4E4C4A" stroke-width="2"/>
<path d="M352.109 487.83L332.159 493.23C331.539 493.537 330.856 493.717 330.109 493.77C328.642 493.583 327.663 493.847 327.169 494.56C320.503 495.887 313.763 496.873 306.949 497.52C302.156 497.973 297.376 498.49 292.609 499.07C286.622 499.79 280.789 499.97 275.109 499.61C257.622 498.49 245.943 497.367 240.069 496.24C233.023 494.893 225.229 493.133 216.689 490.96C210.289 489.34 204.199 487.413 198.419 485.18C181.532 478.66 165.246 470.167 149.559 459.7C144.359 456.233 139.173 452.287 133.999 447.86C114.733 431.38 98.3225 412.343 84.7692 390.75C84.4292 390.203 83.9592 389.353 83.3592 388.2C82.8925 387.307 82.3992 386.473 81.8792 385.7L78.3392 378.96C72.7592 369.387 67.7292 358.233 63.2492 345.5C54.8492 321.633 51.0225 296.903 51.7692 271.31C52.0758 260.87 52.6292 250.97 53.4292 241.61C54.3358 231.003 56.4125 220.157 59.6592 209.07C67.3725 182.743 78.9192 158.417 94.2992 136.09C104.506 121.27 117.286 107.5 132.639 94.78C141.666 87.2933 150.699 80.7067 159.739 75.02C175.446 65.1267 192.012 57.64 209.439 52.56C216.852 50.4 224.806 48.4233 233.299 46.63C240.599 45.09 248.249 44.61 255.799 43.62C258.726 43.2333 261.756 42.9933 264.889 42.9C281.649 42.4333 293.436 42.5033 300.249 43.11C310.443 44.0233 320.736 45.5567 331.129 47.71C349.689 51.55 366.629 58.01 383.619 65.97C405.372 76.1767 424.863 90.07 442.089 107.65C454.269 120.077 464.203 133.207 471.889 147.04C478.379 158.72 485.439 171.12 490.079 183.22C498.939 206.313 504.169 228.82 505.769 250.74C508.636 289.987 501.903 327.817 485.569 364.23C483.323 369.237 480.256 375.147 476.369 381.96C472.016 389.587 468.076 396.12 464.549 401.56C462.556 404.633 459.376 408.9 455.009 414.36C451.443 418.807 447.812 422.983 444.119 426.89C432.119 439.557 419.759 450.437 407.039 459.53C390.526 471.337 372.216 480.77 352.109 487.83ZM232.809 391.24C232.136 391.067 232.119 390.847 232.759 390.58C237.009 388.83 241.619 387.91 246.379 389.21C261.549 393.36 277.069 395.91 292.559 398.87C295.289 399.39 299.269 399.17 301.729 397.59C305.936 394.897 307.139 390.563 305.339 384.59C303.869 379.74 294.499 376.56 289.989 375.52C287.062 374.84 285.569 374.49 285.509 374.47C266.369 369.403 248.033 364.96 230.499 361.14C225.726 360.1 219.742 359.027 212.549 357.92C207.476 357.147 202.939 356.81 198.939 356.91C195.272 357.003 190.716 357.59 185.269 358.67C173.469 360.997 161.876 363.153 150.489 365.14C132.369 368.3 112.916 371.507 92.1292 374.76C91.1092 374.92 90.8625 375.443 91.3892 376.33C98.7758 388.67 106.606 399.81 114.879 409.75C118.149 413.69 121.829 417.36 125.359 421.02C125.606 421.273 125.914 421.458 126.254 421.556C126.594 421.654 126.954 421.662 127.299 421.58C140.019 418.527 153.052 415.777 166.399 413.33C167.872 413.057 169.242 413.02 170.509 413.22C184.976 415.54 198.202 417.847 210.189 420.14C227.469 423.45 244.419 426.41 262.249 430.26C266.216 431.113 270.199 431.847 274.199 432.46C285.179 434.15 295.569 427.73 305.339 423.75C334.872 411.703 360.333 401.44 381.719 392.96C390.393 389.527 399.823 386.113 410.009 382.72C411.289 382.293 412.643 381.037 414.069 378.95C414.509 378.303 414.639 377.61 414.459 376.87C413.529 373.06 408.619 370.37 405.029 369.71C402.419 369.23 400.099 368.31 397.599 367.57C392.349 366.02 387.769 368.74 382.989 370.23C371.639 373.75 360.709 377.79 349.499 381.34C345.879 382.48 342.226 383.68 338.539 384.94C333.319 386.727 327.599 388.533 321.379 390.36C321.297 390.386 321.209 390.391 321.124 390.375C321.039 390.359 320.959 390.323 320.89 390.269C320.822 390.215 320.767 390.145 320.73 390.065C320.693 389.985 320.676 389.898 320.679 389.81C320.893 385.423 320.439 381.017 319.319 376.59C319.219 376.197 319.369 375.957 319.769 375.87C324.789 374.797 329.709 373.56 334.529 372.16C347.789 368.32 360.876 364.447 373.789 360.54C374.748 360.253 375.773 360.253 376.739 360.54C378.329 361.03 381.789 362.38 383.449 362.2C383.949 362.147 384.066 361.907 383.799 361.48C382.639 359.613 381.516 357.747 380.429 355.88C379.389 354.08 379.399 351.92 379.389 349.89C379.323 311.51 379.212 273.383 379.059 235.51C379.053 234.763 379.289 234.677 379.769 235.25C383.769 240.043 388.316 244.697 393.409 249.21C394.683 250.343 395.242 251.657 395.089 253.15C394.943 254.577 394.869 255.32 394.869 255.38C394.923 289.247 394.966 323.13 394.999 357.03C394.999 357.857 395.406 358.197 396.219 358.05C399.319 357.497 402.606 357.32 406.079 357.52C407.946 357.627 409.829 357.5 411.729 357.14C422.019 355.19 433.379 362.3 434.029 373.36C434.179 375.75 432.799 377.45 430.419 377.85C427.809 378.3 421.139 379.29 419.789 381.92C417.249 386.88 414.509 389.43 409.069 390.99C399.219 393.82 390.329 397.89 380.749 401.61C357.556 410.61 336.153 419.167 316.539 427.28C308.126 430.76 300.076 434.203 292.389 437.61C285.276 440.763 278.146 441.71 270.999 440.45C244.919 435.87 215.589 430.56 183.009 424.52C179.756 423.92 175.973 423.503 171.659 423.27C168.666 423.11 165.759 423.35 162.939 423.99C153.693 426.083 144.723 428.523 136.029 431.31C135.905 431.349 135.793 431.419 135.703 431.512C135.613 431.605 135.547 431.72 135.512 431.845C135.478 431.97 135.475 432.102 135.504 432.229C135.533 432.355 135.593 432.473 135.679 432.57C136.666 433.723 137.812 434.823 139.119 435.87C145.679 441.083 151.539 445.513 156.699 449.16C173.339 460.9 191.332 469.88 210.679 476.1C243.489 486.65 279.759 489.88 314.159 483.86C324.646 482.02 333.759 479.903 341.499 477.51C356.993 472.717 371.939 466.23 386.339 458.05C412.449 443.21 435.139 421.21 452.849 396.73C456.569 391.59 459.799 386.09 463.109 380.69C481.076 351.35 491.106 319.213 493.199 284.28C494.659 260.01 492.789 236.32 486.569 213.3C483.243 201.02 478.379 188.057 471.979 174.41C467.729 165.36 462.319 156.59 456.799 148.2C435.499 115.85 403.839 90.07 368.769 74.93C340.422 62.6967 310.362 56.5333 278.589 56.44C233.609 56.3133 192.366 69.14 154.859 94.92C141.559 104.06 129.639 115.55 118.689 127.57C114.036 132.69 109.862 137.783 106.169 142.85C89.4025 165.877 77.5258 191.047 70.5392 218.36C68.8525 224.967 67.5725 231.53 66.6992 238.05C63.8192 259.637 63.8158 281.187 66.6892 302.7C68.4558 315.947 71.4625 328.657 75.7092 340.83C77.6892 346.49 80.5592 351.85 82.8792 357.38C83.4658 358.773 84.2358 360.01 85.1892 361.09C85.3739 361.299 85.6062 361.461 85.8658 361.56C86.1254 361.66 86.4046 361.694 86.6792 361.66C111.039 358.673 135.429 355.06 159.849 350.82C160.619 350.68 161.449 350.7 162.229 350.71C162.682 350.723 162.916 350.5 162.929 350.04C163.062 343.533 163.132 337.273 163.139 331.26C163.166 305.367 163.103 279.267 162.949 252.96C162.942 252.027 163.263 251.223 163.909 250.55L177.609 236.16C177.659 236.109 177.723 236.073 177.792 236.057C177.862 236.04 177.935 236.044 178.001 236.067C178.068 236.09 178.126 236.132 178.168 236.188C178.21 236.243 178.235 236.31 178.239 236.38C178.499 239.833 178.643 243.387 178.669 247.04C178.942 281.06 178.946 314.92 178.679 348.62C178.672 349.567 179.139 349.98 180.079 349.86L183.459 349.42C183.956 349.353 184.41 349.105 184.733 348.722C185.056 348.34 185.226 347.851 185.209 347.35C184.616 328.283 184.609 308.607 185.189 288.32C185.194 288.17 185.258 288.027 185.366 287.923C185.474 287.818 185.619 287.76 185.769 287.76L204.499 287.74C204.846 287.74 205.019 287.913 205.019 288.26L204.959 347.23C204.959 347.603 205.146 347.783 205.519 347.77C210.289 347.63 214.999 345.38 219.769 346.33C229.082 348.197 238.436 350.417 247.829 352.99C257.679 355.69 267.619 358.01 277.589 360.54C280.329 361.233 283.072 361.893 285.819 362.52C290.652 363.613 296.103 365.28 302.169 367.52C307.489 369.48 310.079 372.19 312.399 377.15C315.073 382.85 315.306 388.32 313.099 393.56C311.639 397.033 309.576 399.543 306.909 401.09C301.669 404.15 296.999 405.61 291.239 404.65C286.349 403.84 281.589 403.18 276.709 402.09C267.919 400.11 259.059 398.02 250.169 396.4C243.859 395.26 238.699 392.73 232.809 391.24Z" fill="#FBFAFA"/>
<path d="M232.81 391.24C238.7 392.73 243.86 395.26 250.17 396.4C259.06 398.02 267.92 400.11 276.71 402.09C281.59 403.18 286.35 403.84 291.24 404.65C297 405.61 301.67 404.15 306.91 401.09C309.576 399.543 311.64 397.033 313.1 393.56C315.306 388.32 315.073 382.85 312.4 377.15C310.08 372.19 307.49 369.48 302.17 367.52C296.103 365.28 290.653 363.613 285.82 362.52C283.073 361.893 280.33 361.233 277.59 360.54C267.62 358.01 257.68 355.69 247.83 352.99C238.436 350.417 229.083 348.197 219.77 346.33C215 345.38 210.29 347.63 205.52 347.77C205.146 347.783 204.96 347.603 204.96 347.23L205.02 288.26C205.02 287.913 204.846 287.74 204.5 287.74L185.77 287.76C185.619 287.76 185.475 287.818 185.366 287.923C185.258 288.027 185.195 288.17 185.19 288.32C184.61 308.607 184.616 328.283 185.21 347.35C185.226 347.851 185.057 348.34 184.733 348.722C184.41 349.105 183.956 349.353 183.46 349.42L180.08 349.86C179.14 349.98 178.673 349.567 178.68 348.62C178.946 314.92 178.943 281.06 178.67 247.04C178.643 243.387 178.5 239.833 178.24 236.38C178.236 236.31 178.211 236.243 178.169 236.188C178.127 236.132 178.069 236.09 178.002 236.067C177.935 236.044 177.863 236.04 177.793 236.057C177.723 236.073 177.66 236.109 177.61 236.16L163.91 250.55C163.263 251.223 162.943 252.027 162.95 252.96C163.103 279.267 163.166 305.367 163.14 331.26C163.133 337.273 163.063 343.533 162.93 350.04C162.916 350.5 162.683 350.723 162.23 350.71C161.45 350.7 160.62 350.68 159.85 350.82C135.43 355.06 111.04 358.673 86.6796 361.66C86.4051 361.694 86.1259 361.66 85.8662 361.56C85.6066 361.461 85.3744 361.299 85.1896 361.09C84.2363 360.01 83.4663 358.773 82.8796 357.38C80.5596 351.85 77.6896 346.49 75.7096 340.83C71.4629 328.657 68.4563 315.947 66.6896 302.7C63.8163 281.187 63.8196 259.637 66.6996 238.05C67.5729 231.53 68.8529 224.967 70.5396 218.36C77.5263 191.047 89.4029 165.877 106.17 142.85C109.863 137.783 114.036 132.69 118.69 127.57C129.64 115.55 141.56 104.06 154.86 94.92C192.366 69.14 233.61 56.3133 278.59 56.44C310.363 56.5333 340.423 62.6967 368.77 74.93C403.84 90.07 435.5 115.85 456.8 148.2C462.32 156.59 467.73 165.36 471.98 174.41C478.38 188.057 483.243 201.02 486.57 213.3C492.79 236.32 494.66 260.01 493.2 284.28C491.106 319.213 481.076 351.35 463.11 380.69C459.8 386.09 456.57 391.59 452.85 396.73C435.14 421.21 412.45 443.21 386.34 458.05C371.94 466.23 356.993 472.717 341.5 477.51C333.76 479.903 324.646 482.02 314.16 483.86C279.76 489.88 243.49 486.65 210.68 476.1C191.333 469.88 173.34 460.9 156.7 449.16C151.54 445.513 145.68 441.083 139.12 435.87C137.813 434.823 136.666 433.723 135.68 432.57C135.594 432.473 135.533 432.355 135.504 432.229C135.475 432.102 135.478 431.97 135.513 431.845C135.548 431.72 135.613 431.605 135.703 431.512C135.794 431.419 135.906 431.349 136.03 431.31C144.723 428.523 153.693 426.083 162.94 423.99C165.76 423.35 168.666 423.11 171.66 423.27C175.973 423.503 179.756 423.92 183.01 424.52C215.59 430.56 244.92 435.87 271 440.45C278.146 441.71 285.276 440.763 292.39 437.61C300.076 434.203 308.126 430.76 316.54 427.28C336.153 419.167 357.556 410.61 380.75 401.61C390.33 397.89 399.22 393.82 409.07 390.99C414.51 389.43 417.25 386.88 419.79 381.92C421.14 379.29 427.81 378.3 430.42 377.85C432.8 377.45 434.18 375.75 434.03 373.36C433.38 362.3 422.02 355.19 411.73 357.14C409.83 357.5 407.946 357.627 406.08 357.52C402.606 357.32 399.32 357.497 396.22 358.05C395.406 358.197 395 357.857 395 357.03C394.966 323.13 394.923 289.247 394.87 255.38C394.87 255.32 394.943 254.577 395.09 253.15C395.243 251.657 394.683 250.343 393.41 249.21C388.316 244.697 383.77 240.043 379.77 235.25C379.29 234.677 379.053 234.763 379.06 235.51C379.213 273.383 379.323 311.51 379.39 349.89C379.4 351.92 379.39 354.08 380.43 355.88C381.516 357.747 382.64 359.613 383.8 361.48C384.066 361.907 383.95 362.147 383.45 362.2C381.79 362.38 378.33 361.03 376.74 360.54C375.774 360.253 374.749 360.253 373.79 360.54C360.876 364.447 347.79 368.32 334.53 372.16C329.71 373.56 324.79 374.797 319.77 375.87C319.37 375.957 319.22 376.197 319.32 376.59C320.44 381.017 320.893 385.423 320.68 389.81C320.676 389.898 320.694 389.985 320.73 390.065C320.767 390.145 320.822 390.215 320.891 390.269C320.959 390.323 321.039 390.359 321.124 390.375C321.21 390.391 321.297 390.386 321.38 390.36C327.6 388.533 333.32 386.727 338.54 384.94C342.226 383.68 345.88 382.48 349.5 381.34C360.71 377.79 371.64 373.75 382.99 370.23C387.77 368.74 392.35 366.02 397.6 367.57C400.1 368.31 402.42 369.23 405.03 369.71C408.62 370.37 413.53 373.06 414.46 376.87C414.64 377.61 414.51 378.303 414.07 378.95C412.643 381.037 411.29 382.293 410.01 382.72C399.823 386.113 390.393 389.527 381.72 392.96C360.333 401.44 334.873 411.703 305.34 423.75C295.57 427.73 285.18 434.15 274.2 432.46C270.2 431.847 266.216 431.113 262.25 430.26C244.42 426.41 227.47 423.45 210.19 420.14C198.203 417.847 184.976 415.54 170.51 413.22C169.243 413.02 167.873 413.057 166.4 413.33C153.053 415.777 140.02 418.527 127.3 421.58C126.955 421.662 126.594 421.654 126.254 421.556C125.914 421.458 125.606 421.273 125.36 421.02C121.83 417.36 118.15 413.69 114.88 409.75C106.606 399.81 98.7763 388.67 91.3896 376.33C90.8629 375.443 91.1096 374.92 92.1296 374.76C112.916 371.507 132.37 368.3 150.49 365.14C161.876 363.153 173.47 360.997 185.27 358.67C190.716 357.59 195.273 357.003 198.94 356.91C202.94 356.81 207.476 357.147 212.55 357.92C219.743 359.027 225.726 360.1 230.5 361.14C248.033 364.96 266.37 369.403 285.51 374.47C285.57 374.49 287.063 374.84 289.99 375.52C294.5 376.56 303.87 379.74 305.34 384.59C307.14 390.563 305.936 394.897 301.73 397.59C299.27 399.17 295.29 399.39 292.56 398.87C277.07 395.91 261.55 393.36 246.38 389.21C241.62 387.91 237.01 388.83 232.76 390.58C232.12 390.847 232.136 391.067 232.81 391.24ZM194.44 188.5C194.65 186.28 191.71 186.52 190.43 186.93C190.181 187.01 189.953 187.147 189.766 187.33C189.578 187.512 189.435 187.735 189.348 187.982C189.261 188.229 189.232 188.493 189.264 188.752C189.295 189.012 189.386 189.261 189.53 189.48L191.39 192.3C191.35 194.6 188.75 197.43 187.21 198.96C181.06 205.05 174.61 211.24 167.89 216.96C162.843 221.253 158.046 225.717 153.5 230.35C151.54 232.35 149.26 233.84 147.32 235.81C147.196 235.936 147.101 236.086 147.038 236.251C146.976 236.415 146.949 236.591 146.958 236.767C146.968 236.943 147.013 237.115 147.093 237.272C147.172 237.429 147.284 237.568 147.42 237.68L147.79 237.99C148.45 238.537 149.11 238.54 149.77 238C157.81 231.527 165.77 224.66 173.65 217.4C178.7 212.75 184.33 208.73 189.34 204.09C198.4 195.69 208.05 187.67 216.7 178.99C223.71 171.95 231.32 165.97 238.16 158.9C239.81 157.19 241.19 155.19 242.97 153.64C249.51 147.91 255.43 141.59 261.81 135.8C267.723 130.44 273.443 125.107 278.97 119.8C279.23 119.55 279.576 119.407 279.937 119.4C280.298 119.392 280.649 119.521 280.92 119.76C293.386 130.847 305.53 142.33 317.35 154.21C325.57 162.46 333.17 169.61 341.31 176.91C345.14 180.35 348.55 184.87 352.25 188C355.82 191.03 359.13 194.23 362.78 197.05C363.953 197.957 365.19 199.023 366.49 200.25C376.956 210.103 388.136 219.903 400.03 229.65C401.156 230.57 402.133 231.563 402.96 232.63C403.873 233.797 405.09 234.65 406.61 235.19C406.943 235.303 407.226 235.497 407.46 235.77C408.733 237.243 410.343 237.977 412.29 237.97C412.387 237.971 412.483 237.948 412.571 237.905C412.658 237.862 412.735 237.8 412.794 237.722C412.853 237.644 412.893 237.554 412.912 237.458C412.93 237.363 412.926 237.264 412.9 237.17C412.74 236.603 412.406 236.167 411.9 235.86C408.6 233.86 406.3 231.05 403.48 228.48C398.826 224.233 394.396 220.09 390.19 216.05C389.81 215.683 389.423 215.31 389.03 214.93C385.79 211.817 382.373 208.663 378.78 205.47C369.686 197.403 361.556 189.16 354.39 180.74C353.93 180.2 353.85 179.61 354.15 178.97C354.29 178.67 354.363 178.353 354.37 178.02L354.43 172.29L354.79 129.71C354.791 129.648 354.78 129.586 354.757 129.529C354.733 129.471 354.699 129.419 354.655 129.375C354.611 129.331 354.559 129.296 354.501 129.273C354.443 129.25 354.382 129.239 354.32 129.24L339.69 129.25C339.582 129.25 339.476 129.271 339.377 129.313C339.278 129.354 339.189 129.414 339.113 129.491C339.038 129.567 338.978 129.658 338.938 129.757C338.898 129.856 338.878 129.963 338.88 130.07L338.95 154.46L338.69 162.54C338.687 162.677 338.643 162.809 338.565 162.921C338.486 163.033 338.376 163.119 338.249 163.168C338.121 163.218 337.982 163.228 337.849 163.198C337.715 163.168 337.594 163.099 337.5 163C334.98 160.4 332.31 157.84 329.49 155.32C326.716 152.847 324.053 150.307 321.5 147.7C308.193 134.147 294.533 120.78 280.52 107.6C280.4 107.49 280.241 107.431 280.078 107.437C279.916 107.442 279.762 107.512 279.65 107.63C273.4 114.32 266.54 120.2 260.28 126.63C257.08 129.917 253.793 133.317 250.42 136.83C247.713 139.637 244.9 142.423 241.98 145.19C239.013 147.99 236.073 150.697 233.16 153.31C229.586 156.51 225.993 160.133 222.38 164.18C216.59 170.66 209.37 176.03 203.15 182.38C200.75 184.827 198.366 187.263 196 189.69C195.886 189.805 195.748 189.895 195.597 189.953C195.446 190.011 195.284 190.036 195.122 190.027C194.96 190.017 194.802 189.974 194.659 189.898C194.515 189.823 194.389 189.718 194.29 189.59C194.243 189.53 194.293 189.167 194.44 188.5ZM245.8 120.6C245.8 119.82 245.49 119.072 244.939 118.521C244.387 117.97 243.639 117.66 242.86 117.66C242.08 117.66 241.332 117.97 240.781 118.521C240.229 119.072 239.92 119.82 239.92 120.6C239.92 121.38 240.229 122.128 240.781 122.679C241.332 123.23 242.08 123.54 242.86 123.54C243.639 123.54 244.387 123.23 244.939 122.679C245.49 122.128 245.8 121.38 245.8 120.6ZM194.366 131.301C194.741 130.638 194.808 129.838 194.552 129.074C194.297 128.311 193.739 127.649 193.003 127.232C192.638 127.026 192.241 126.886 191.833 126.821C191.425 126.756 191.015 126.767 190.626 126.853C190.237 126.939 189.876 127.099 189.565 127.323C189.254 127.547 188.999 127.831 188.813 128.159C188.438 128.822 188.371 129.623 188.627 130.386C188.883 131.149 189.44 131.811 190.176 132.228C190.541 132.434 190.939 132.574 191.346 132.639C191.754 132.704 192.164 132.693 192.553 132.607C192.943 132.521 193.303 132.361 193.614 132.137C193.925 131.913 194.18 131.629 194.366 131.301ZM223.09 129.66C223.09 129.495 223.057 129.332 222.994 129.179C222.93 129.027 222.837 128.889 222.72 128.773C222.603 128.656 222.464 128.565 222.311 128.502C222.158 128.44 221.995 128.409 221.83 128.41L209.03 128.6C208.705 128.605 208.395 128.736 208.166 128.966C207.936 129.196 207.805 129.505 207.8 129.83L207.57 146.42C207.567 146.748 207.693 147.064 207.922 147.3C208.15 147.536 208.462 147.672 208.79 147.68L221.74 147.92C221.906 147.924 222.072 147.895 222.227 147.834C222.382 147.773 222.524 147.681 222.643 147.565C222.762 147.448 222.857 147.309 222.922 147.155C222.986 147.002 223.02 146.837 223.02 146.67L223.09 129.66ZM362.93 151.54C362.95 144.52 363.07 137.57 362.06 130.87C362.027 130.64 361.929 130.426 361.778 130.252C361.627 130.078 361.43 129.952 361.21 129.89C360.596 129.71 360.033 129.937 359.52 130.57C359.307 130.834 359.2 131.165 359.22 131.5C359.706 139.987 359.773 147.823 359.42 155.01C359.11 161.29 359.23 167.47 360.13 173.24C360.456 175.293 361.056 175.38 361.93 173.5C362.356 172.587 362.583 171.753 362.61 171C362.803 164.513 362.91 158.027 362.93 151.54ZM328.548 135.32C328.846 135.41 329.18 135.332 329.478 135.103C329.777 134.873 330.015 134.512 330.14 134.098C330.202 133.893 330.234 133.682 330.235 133.475C330.236 133.269 330.205 133.072 330.145 132.896C330.085 132.719 329.996 132.567 329.883 132.448C329.771 132.328 329.638 132.244 329.491 132.2C329.194 132.11 328.859 132.188 328.561 132.417C328.262 132.647 328.024 133.008 327.9 133.422C327.838 133.627 327.805 133.838 327.804 134.045C327.804 134.251 327.834 134.448 327.894 134.624C327.955 134.801 328.043 134.953 328.156 135.072C328.268 135.192 328.401 135.276 328.548 135.32ZM323.87 250.98C329.616 250.547 335.16 250.147 340.5 249.78C342.093 249.673 343.646 249.477 345.16 249.19C345.58 249.11 345.79 248.857 345.79 248.43L345.62 213.57C345.618 213.425 345.588 213.282 345.531 213.149C345.474 213.016 345.391 212.896 345.286 212.795C345.182 212.694 345.059 212.616 344.924 212.563C344.789 212.511 344.644 212.486 344.5 212.49C338.566 212.65 332.763 212.36 327.09 211.62C326.11 211.493 326.113 211.383 327.1 211.29C333.173 210.723 339.156 209.947 345.05 208.96C346.696 208.687 347.223 207.77 346.63 206.21C346.216 205.123 345.56 204.167 344.66 203.34C336.606 195.893 329.54 189.047 323.46 182.8C310.12 169.1 295.28 154.89 281.29 140.63C281.133 140.47 280.927 140.367 280.704 140.338C280.481 140.309 280.254 140.355 280.06 140.47C279.166 140.997 278.356 141.63 277.63 142.37C273.84 146.26 269.75 149.83 265.87 153.73C247.256 172.45 231.216 188.087 217.75 200.64C216.363 201.933 214.836 203.277 213.17 204.67C212.323 205.377 211.773 206.25 211.52 207.29C211.3 208.183 211.65 208.683 212.57 208.79C215.856 209.163 219.136 209.45 222.41 209.65C225.41 209.83 228.34 210.58 231.27 211.24C232.21 211.453 232.206 211.633 231.26 211.78C224.773 212.767 218.27 213.353 211.75 213.54C211.624 213.543 211.505 213.593 211.417 213.681C211.329 213.769 211.28 213.887 211.28 214.01L211.2 248.72C211.2 249.087 211.383 249.27 211.75 249.27C218.01 249.263 224.093 249.603 230 250.29C231.18 250.43 231.19 250.623 230.03 250.87C228.97 251.103 227.876 251.263 226.75 251.35C222.056 251.73 217.15 252.057 212.03 252.33C211.496 252.357 211.23 252.64 211.23 253.18V282.09C211.23 282.429 211.354 282.757 211.578 283.011C211.803 283.265 212.113 283.429 212.45 283.47C216.37 283.977 220.16 284.143 223.82 283.97C224.52 283.937 224.556 284.077 223.93 284.39C222.983 284.87 221.983 285.107 220.93 285.1C217.816 285.087 215.04 285.36 212.6 285.92C212.227 286.006 211.894 286.215 211.655 286.514C211.415 286.814 211.283 287.186 211.28 287.57C211.266 303.297 211.24 319.107 211.2 335C211.193 337.347 211.12 339.653 210.98 341.92C210.974 341.996 210.986 342.072 211.016 342.143C211.046 342.213 211.093 342.275 211.153 342.324C211.213 342.373 211.283 342.407 211.359 342.424C211.435 342.441 211.514 342.439 211.59 342.42C216.93 341.03 221.91 340.22 227.5 341.48C235.153 343.213 242.81 344.967 250.47 346.74C260.24 349 270.59 352.18 280.45 354.57C280.511 354.584 280.575 354.582 280.636 354.564C280.696 354.546 280.751 354.513 280.795 354.468C280.839 354.423 280.871 354.367 280.887 354.306C280.904 354.245 280.905 354.181 280.89 354.12L279.33 347.59C279.284 347.397 279.281 347.196 279.322 347.001C279.364 346.807 279.447 346.624 279.568 346.466C279.689 346.308 279.843 346.179 280.02 346.088C280.196 345.997 280.391 345.946 280.59 345.94C285.483 345.753 290.34 345.663 295.16 345.67C311.153 345.69 326.053 345.753 339.86 345.86C341.526 345.873 343.246 345.79 345.02 345.61C345.198 345.591 345.364 345.507 345.485 345.374C345.607 345.242 345.676 345.07 345.68 344.89C345.873 327.05 345.923 309.4 345.83 291.94C345.816 289.827 345.77 287.787 345.69 285.82C345.676 285.48 345.503 285.283 345.17 285.23C341.81 284.71 338.44 284.283 335.06 283.95C334.973 283.937 334.93 283.887 334.93 283.8C334.93 283.713 334.976 283.667 335.07 283.66C338.483 283.52 341.813 283.293 345.06 282.98C345.54 282.933 345.78 282.67 345.78 282.19L345.88 254.03C345.88 253.675 345.739 253.335 345.488 253.082C345.238 252.83 344.897 252.685 344.54 252.68C337.206 252.6 330.316 252.103 323.87 251.19C323.223 251.097 323.223 251.027 323.87 250.98ZM365.24 152.61L373.44 158.14C374.169 158.629 375.063 158.809 375.926 158.64C376.788 158.472 377.548 157.968 378.04 157.24L379.24 155.48C379.856 154.566 380.296 153.547 380.536 152.481C380.775 151.414 380.809 150.321 380.635 149.265C380.462 148.208 380.084 147.208 379.523 146.322C378.963 145.435 378.231 144.681 377.37 144.1L376.79 143.71C375.929 143.129 374.955 142.733 373.923 142.546C372.892 142.359 371.823 142.383 370.779 142.618C369.734 142.853 368.734 143.294 367.835 143.915C366.936 144.537 366.156 145.327 365.54 146.24L364.35 148.01C363.859 148.739 363.678 149.632 363.845 150.494C364.012 151.356 364.513 152.117 365.24 152.61ZM226.561 157.611C226.78 157.455 226.962 157.251 227.096 157.009C227.229 156.767 227.312 156.493 227.339 156.202C227.366 155.911 227.337 155.608 227.254 155.312C227.17 155.016 227.034 154.732 226.853 154.475C226.671 154.219 226.448 153.996 226.197 153.819C225.945 153.642 225.67 153.514 225.386 153.443C225.102 153.372 224.816 153.359 224.544 153.405C224.272 153.45 224.018 153.554 223.799 153.709C223.579 153.865 223.397 154.069 223.263 154.311C223.13 154.553 223.047 154.827 223.02 155.118C222.993 155.41 223.022 155.712 223.105 156.008C223.189 156.304 223.325 156.588 223.507 156.845C223.688 157.101 223.911 157.324 224.162 157.501C224.414 157.678 224.69 157.806 224.973 157.877C225.257 157.948 225.543 157.961 225.815 157.915C226.088 157.87 226.341 157.766 226.561 157.611ZM185.49 161.09C185.489 160.937 185.456 160.785 185.394 160.645C185.333 160.505 185.243 160.379 185.13 160.275C185.018 160.171 184.885 160.091 184.74 160.04C184.596 159.99 184.442 159.969 184.29 159.98L177.76 160.44C177.473 160.46 177.206 160.59 177.012 160.802C176.818 161.014 176.714 161.293 176.72 161.58L176.91 170.42C176.917 170.714 177.04 170.992 177.252 171.196C177.463 171.4 177.746 171.513 178.04 171.51L184.43 171.42C184.725 171.415 185.006 171.293 185.212 171.081C185.418 170.87 185.532 170.585 185.53 170.29L185.49 161.09ZM385.45 168.31C386.543 166.697 387.203 165.18 387.43 163.76C387.603 162.667 387.18 161.897 386.16 161.45C385.78 161.283 385.376 161.193 384.95 161.18C384.196 161.147 383.88 161.503 384 162.25L384.97 168.21C385.043 168.65 385.203 168.683 385.45 168.31ZM381.94 169.78C382.066 170.047 382.133 170.033 382.14 169.74L382.29 162.55C382.303 161.75 381.966 161.553 381.28 161.96L380.7 162.31C380.046 162.69 379.8 163.25 379.96 163.99C380.346 165.843 381.006 167.773 381.94 169.78ZM200.29 164.54C200.279 164.459 200.246 164.383 200.194 164.32C200.142 164.257 200.073 164.211 199.996 164.185C199.918 164.16 199.835 164.158 199.756 164.178C199.677 164.198 199.605 164.241 199.55 164.3L188.83 175.54C188.771 175.6 188.731 175.676 188.715 175.758C188.699 175.841 188.708 175.926 188.74 176.004C188.772 176.081 188.826 176.148 188.895 176.195C188.964 176.242 189.046 176.268 189.13 176.27L201.4 176.78C201.462 176.782 201.525 176.77 201.582 176.746C201.64 176.721 201.692 176.684 201.734 176.638C201.776 176.591 201.807 176.536 201.825 176.476C201.843 176.415 201.848 176.352 201.84 176.29L200.29 164.54ZM372.97 182.52C375.27 184.85 378.23 187.68 381.35 188.85C381.459 188.89 381.576 188.906 381.692 188.895C381.807 188.884 381.919 188.848 382.018 188.788C382.118 188.728 382.202 188.647 382.264 188.55C382.327 188.454 382.366 188.344 382.38 188.23C383.03 183.27 384.12 170.51 377.07 168.93C372.77 167.96 367.3 168.37 364.65 172.2C363.99 173.16 363.226 174 362.36 174.72C362.304 174.765 362.261 174.824 362.236 174.891C362.21 174.958 362.202 175.031 362.213 175.102C362.225 175.172 362.254 175.239 362.299 175.295C362.344 175.351 362.403 175.394 362.47 175.42C366.33 177.07 370.07 179.58 372.97 182.52ZM181.004 189.12C181.504 189.086 181.993 188.945 182.441 188.703C182.889 188.462 183.288 188.127 183.616 187.715C183.943 187.304 184.192 186.825 184.349 186.306C184.507 185.787 184.568 185.238 184.531 184.69C184.493 184.143 184.358 183.607 184.132 183.114C183.906 182.621 183.594 182.181 183.213 181.817C182.833 181.454 182.392 181.176 181.915 180.998C181.439 180.82 180.936 180.746 180.435 180.78C179.935 180.814 179.447 180.955 178.998 181.197C178.55 181.438 178.151 181.773 177.824 182.185C177.496 182.596 177.247 183.075 177.09 183.594C176.933 184.113 176.871 184.662 176.908 185.21C176.946 185.757 177.081 186.293 177.307 186.786C177.533 187.279 177.845 187.719 178.226 188.083C178.606 188.446 179.047 188.724 179.524 188.902C180 189.08 180.503 189.154 181.004 189.12ZM388.497 197.03C388.719 197.068 388.947 197.052 389.169 196.984C389.392 196.915 389.603 196.795 389.793 196.63C389.982 196.466 390.145 196.26 390.272 196.025C390.4 195.789 390.489 195.529 390.535 195.258C390.581 194.988 390.584 194.712 390.542 194.448C390.5 194.183 390.414 193.935 390.29 193.717C390.167 193.499 390.007 193.315 389.82 193.177C389.633 193.038 389.423 192.948 389.202 192.91C388.98 192.872 388.752 192.888 388.53 192.956C388.308 193.025 388.096 193.145 387.907 193.31C387.717 193.474 387.554 193.68 387.427 193.915C387.3 194.151 387.21 194.411 387.164 194.682C387.118 194.952 387.116 195.228 387.158 195.492C387.2 195.757 387.285 196.005 387.409 196.223C387.533 196.441 387.692 196.625 387.879 196.763C388.066 196.902 388.276 196.992 388.497 197.03ZM163.926 197.205C163.892 196.859 163.783 196.523 163.606 196.217C163.428 195.912 163.186 195.642 162.892 195.424C162.598 195.205 162.258 195.042 161.893 194.944C161.527 194.846 161.143 194.815 160.761 194.853C160.379 194.89 160.008 194.995 159.669 195.162C159.329 195.33 159.028 195.555 158.782 195.827C158.536 196.098 158.35 196.41 158.236 196.744C158.121 197.078 158.08 197.429 158.114 197.775C158.147 198.121 158.256 198.457 158.434 198.763C158.611 199.068 158.854 199.338 159.148 199.556C159.441 199.775 159.781 199.938 160.146 200.036C160.512 200.134 160.897 200.165 161.278 200.127C161.66 200.09 162.031 199.985 162.371 199.818C162.71 199.651 163.012 199.425 163.257 199.153C163.503 198.882 163.689 198.57 163.803 198.236C163.918 197.902 163.96 197.551 163.926 197.205ZM372.82 231.5C372.82 231.429 372.806 231.359 372.778 231.294C372.751 231.229 372.71 231.169 372.66 231.12L352.79 211.97C352.715 211.897 352.62 211.848 352.518 211.829C352.415 211.809 352.31 211.821 352.213 211.861C352.117 211.902 352.035 211.97 351.978 212.057C351.92 212.144 351.89 212.246 351.89 212.35L351.81 281.26C351.81 281.401 351.865 281.535 351.965 281.635C352.064 281.734 352.199 281.79 352.34 281.79L372.41 281.86C372.55 281.86 372.685 281.804 372.784 281.705C372.884 281.605 372.94 281.471 372.94 281.33L372.82 231.5ZM203.95 212.89C202.75 214.537 201.496 215.957 200.19 217.15C195.656 221.263 191.14 225.52 186.64 229.92C185.23 231.3 184.99 233.24 185 235.1C185.006 246.44 185.01 257.633 185.01 268.68C185.01 272.753 184.85 276.93 184.53 281.21C184.496 281.63 184.69 281.847 185.11 281.86L203.9 282.33C204.42 282.343 204.693 282.09 204.72 281.57C204.773 280.55 204.806 279.527 204.82 278.5C205.166 256.773 205.13 234.983 204.71 213.13C204.69 212.29 204.436 212.21 203.95 212.89ZM350.95 351.99C350.931 352.094 350.876 352.187 350.793 352.255C350.711 352.323 350.607 352.36 350.5 352.36C330.093 352.087 309.91 352.217 289.95 352.75C289.765 352.754 289.582 352.797 289.415 352.876C289.247 352.955 289.097 353.068 288.975 353.208C288.853 353.348 288.761 353.512 288.705 353.689C288.649 353.867 288.63 354.055 288.65 354.24C288.78 355.41 289.98 356.05 291.01 356.31C295.003 357.317 298.866 358.367 302.6 359.46C308.42 361.173 313.163 364.467 316.83 369.34C316.979 369.54 317.186 369.69 317.422 369.768C317.658 369.847 317.912 369.851 318.15 369.78C335.476 364.747 353.336 359.9 371.73 355.24C372.075 355.151 372.383 354.951 372.605 354.671C372.827 354.392 372.951 354.047 372.96 353.69C373.44 331.36 372.95 309.42 373.01 288.27C373.01 287.937 372.846 287.767 372.52 287.76L352.31 287.44C351.936 287.44 351.75 287.627 351.75 288C351.703 308.633 351.623 327.97 351.51 346.01C351.496 348.097 351.31 350.09 350.95 351.99Z" fill="#829FE8"/>
<path d="M338.95 154.46C339.04 157.22 338.26 162.96 339.6 165C340.62 166.56 342.447 168.38 345.08 170.46C346.094 171.267 347.244 171.807 348.53 172.08C350.557 172.513 352.24 173.447 353.58 174.88C353.894 175.213 354.08 175.153 354.14 174.7L354.43 172.29L354.37 178.02C354.364 178.353 354.29 178.67 354.15 178.97C353.85 179.61 353.93 180.2 354.39 180.74C361.557 189.16 369.687 197.403 378.78 205.47C382.374 208.663 385.79 211.817 389.03 214.93C389.424 215.31 389.81 215.683 390.19 216.05C394.397 220.09 398.827 224.233 403.48 228.48C406.3 231.05 408.6 233.86 411.9 235.86C412.407 236.167 412.74 236.603 412.9 237.17C412.927 237.264 412.931 237.363 412.912 237.458C412.894 237.554 412.854 237.644 412.795 237.722C412.735 237.8 412.659 237.862 412.572 237.905C412.484 237.948 412.388 237.971 412.29 237.97C410.344 237.977 408.734 237.243 407.46 235.77C407.227 235.497 406.944 235.303 406.61 235.19C405.09 234.65 403.874 233.797 402.96 232.63C402.134 231.563 401.157 230.57 400.03 229.65C388.137 219.903 376.957 210.103 366.49 200.25C365.19 199.023 363.954 197.957 362.78 197.05C359.13 194.23 355.82 191.03 352.25 188C348.55 184.87 345.14 180.35 341.31 176.91C333.17 169.61 325.57 162.46 317.35 154.21C305.53 142.33 293.387 130.847 280.92 119.76C280.649 119.521 280.299 119.392 279.937 119.4C279.576 119.407 279.231 119.55 278.97 119.8C273.444 125.107 267.724 130.44 261.81 135.8C255.43 141.59 249.51 147.91 242.97 153.64C241.19 155.19 239.81 157.19 238.16 158.9C231.32 165.97 223.71 171.95 216.7 178.99C208.05 187.67 198.4 195.69 189.34 204.09C184.33 208.73 178.7 212.75 173.65 217.4C165.77 224.66 157.81 231.527 149.77 238C149.11 238.54 148.45 238.537 147.79 237.99L147.42 237.68C147.284 237.568 147.173 237.429 147.094 237.272C147.014 237.115 146.968 236.943 146.959 236.767C146.949 236.591 146.977 236.415 147.039 236.251C147.101 236.086 147.197 235.936 147.32 235.81C149.26 233.84 151.54 232.35 153.5 230.35C158.047 225.717 162.844 221.253 167.89 216.96C174.61 211.24 181.06 205.05 187.21 198.96C188.75 197.43 191.35 194.6 191.39 192.3C192.024 192.547 192.607 192.163 193.14 191.15C193.86 189.777 194.294 188.893 194.44 188.5C194.294 189.167 194.244 189.53 194.29 189.59C194.39 189.718 194.516 189.823 194.659 189.898C194.803 189.974 194.961 190.017 195.123 190.027C195.284 190.036 195.446 190.011 195.598 189.953C195.749 189.895 195.886 189.805 196 189.69C198.367 187.263 200.75 184.827 203.15 182.38C209.37 176.03 216.59 170.66 222.38 164.18C225.994 160.133 229.587 156.51 233.16 153.31C236.074 150.697 239.014 147.99 241.98 145.19C244.9 142.423 247.714 139.637 250.42 136.83C253.794 133.317 257.08 129.917 260.28 126.63C266.54 120.2 273.4 114.32 279.65 107.63C279.762 107.512 279.916 107.442 280.079 107.437C280.242 107.431 280.4 107.49 280.52 107.6C294.534 120.78 308.194 134.147 321.5 147.7C324.054 150.307 326.717 152.847 329.49 155.32C332.31 157.84 334.98 160.4 337.5 163C337.594 163.099 337.716 163.168 337.849 163.198C337.983 163.228 338.122 163.218 338.249 163.168C338.377 163.119 338.487 163.033 338.565 162.921C338.644 162.809 338.687 162.677 338.69 162.54L338.95 154.46ZM352.307 177.941C352.383 177.862 352.386 177.713 352.314 177.503C352.242 177.294 352.098 177.028 351.889 176.721C351.681 176.414 351.412 176.071 351.098 175.713C350.784 175.354 350.432 174.987 350.061 174.633C349.311 173.916 348.531 173.293 347.892 172.9C347.253 172.508 346.807 172.378 346.653 172.539C346.577 172.618 346.575 172.767 346.647 172.977C346.718 173.186 346.862 173.452 347.071 173.759C347.28 174.067 347.549 174.409 347.862 174.767C348.176 175.126 348.529 175.493 348.9 175.847C349.65 176.564 350.43 177.187 351.069 177.58C351.708 177.972 352.153 178.102 352.307 177.941Z" fill="#FBFAFA"/>
<path d="M242.86 123.54C244.484 123.54 245.8 122.224 245.8 120.6C245.8 118.976 244.484 117.66 242.86 117.66C241.236 117.66 239.92 118.976 239.92 120.6C239.92 122.224 241.236 123.54 242.86 123.54Z" fill="#FBFAFA"/>
<path d="M190.176 132.228C191.71 133.095 193.586 132.68 194.366 131.301C195.147 129.921 194.536 128.1 193.003 127.232C191.47 126.365 189.594 126.78 188.813 128.159C188.033 129.539 188.643 131.36 190.176 132.228Z" fill="#FBFAFA"/>
<path d="M223.09 129.66L223.02 146.67C223.02 146.837 222.987 147.002 222.922 147.155C222.858 147.309 222.763 147.448 222.644 147.565C222.524 147.681 222.383 147.773 222.228 147.834C222.073 147.895 221.907 147.924 221.74 147.92L208.79 147.68C208.462 147.672 208.151 147.536 207.922 147.3C207.694 147.064 207.568 146.748 207.57 146.42L207.8 129.83C207.806 129.505 207.937 129.196 208.166 128.966C208.396 128.736 208.706 128.605 209.03 128.6L221.83 128.41C221.995 128.409 222.159 128.44 222.312 128.502C222.465 128.564 222.604 128.656 222.721 128.773C222.838 128.889 222.931 129.027 222.994 129.179C223.058 129.332 223.09 129.495 223.09 129.66Z" fill="#FBFAFA"/>
<path d="M354.43 172.29L354.14 174.7C354.08 175.153 353.893 175.213 353.58 174.88C352.24 173.447 350.556 172.513 348.53 172.08C347.243 171.807 346.093 171.267 345.08 170.46C342.446 168.38 340.62 166.56 339.6 165C338.26 162.96 339.04 157.22 338.95 154.46L338.88 130.07C338.878 129.963 338.898 129.856 338.938 129.757C338.979 129.658 339.038 129.567 339.113 129.491C339.189 129.414 339.278 129.354 339.377 129.313C339.476 129.271 339.582 129.25 339.69 129.25L354.32 129.24C354.382 129.239 354.443 129.25 354.501 129.273C354.559 129.296 354.611 129.331 354.655 129.375C354.699 129.419 354.734 129.471 354.757 129.529C354.78 129.586 354.791 129.648 354.79 129.71L354.43 172.29Z" fill="#FBFAFA"/>
<path d="M362.931 151.54C362.911 158.027 362.804 164.513 362.611 171C362.584 171.753 362.358 172.587 361.931 173.5C361.058 175.38 360.458 175.293 360.131 173.24C359.231 167.47 359.111 161.29 359.421 155.01C359.774 147.823 359.708 139.987 359.221 131.5C359.202 131.165 359.309 130.834 359.521 130.57C360.034 129.937 360.598 129.71 361.211 129.89C361.431 129.952 361.628 130.078 361.779 130.252C361.93 130.426 362.028 130.64 362.061 130.87C363.071 137.57 362.951 144.52 362.931 151.54Z" fill="#FBFAFA"/>
<path d="M327.9 133.422C327.64 134.284 327.93 135.134 328.549 135.32C329.168 135.507 329.88 134.96 330.14 134.098C330.4 133.236 330.11 132.386 329.491 132.2C328.873 132.013 328.16 132.56 327.9 133.422Z" fill="#FBFAFA"/>
<path d="M323.87 251.19C330.317 252.103 337.207 252.6 344.54 252.68C344.897 252.685 345.238 252.83 345.489 253.082C345.739 253.335 345.88 253.675 345.88 254.03L345.78 282.19C345.78 282.67 345.54 282.933 345.06 282.98C341.813 283.293 338.483 283.52 335.07 283.66C334.977 283.667 334.93 283.713 334.93 283.8C334.93 283.887 334.973 283.937 335.06 283.95C338.44 284.283 341.81 284.71 345.17 285.23C345.503 285.283 345.677 285.48 345.69 285.82C345.77 287.787 345.817 289.827 345.83 291.94C345.923 309.4 345.873 327.05 345.68 344.89C345.676 345.07 345.607 345.242 345.486 345.374C345.364 345.507 345.199 345.591 345.02 345.61C343.247 345.79 341.527 345.873 339.86 345.86C326.053 345.753 311.153 345.69 295.16 345.67C290.34 345.663 285.483 345.753 280.59 345.94C280.391 345.946 280.197 345.997 280.02 346.088C279.843 346.179 279.689 346.308 279.568 346.466C279.448 346.624 279.364 346.807 279.323 347.001C279.281 347.196 279.284 347.397 279.33 347.59L280.89 354.12C280.905 354.181 280.904 354.245 280.888 354.306C280.871 354.367 280.839 354.423 280.795 354.468C280.751 354.513 280.696 354.546 280.636 354.564C280.576 354.582 280.512 354.584 280.45 354.57C270.59 352.18 260.24 349 250.47 346.74C242.81 344.967 235.153 343.213 227.5 341.48C221.91 340.22 216.93 341.03 211.59 342.42C211.515 342.439 211.436 342.441 211.36 342.424C211.284 342.407 211.213 342.373 211.153 342.324C211.094 342.275 211.047 342.213 211.017 342.143C210.987 342.072 210.974 341.996 210.98 341.92C211.12 339.653 211.193 337.347 211.2 335C211.24 319.107 211.267 303.297 211.28 287.57C211.283 287.186 211.415 286.814 211.655 286.514C211.894 286.215 212.227 286.005 212.6 285.92C215.04 285.36 217.817 285.087 220.93 285.1C221.983 285.107 222.983 284.87 223.93 284.39C224.557 284.077 224.52 283.937 223.82 283.97C220.16 284.143 216.37 283.977 212.45 283.47C212.113 283.428 211.803 283.265 211.579 283.011C211.354 282.757 211.23 282.429 211.23 282.09V253.18C211.23 252.64 211.497 252.357 212.03 252.33C217.15 252.057 222.057 251.73 226.75 251.35C227.877 251.263 228.97 251.103 230.03 250.87C231.19 250.623 231.18 250.43 230 250.29C224.093 249.603 218.01 249.263 211.75 249.27C211.383 249.27 211.2 249.087 211.2 248.72L211.28 214.01C211.28 213.887 211.329 213.769 211.417 213.681C211.505 213.593 211.624 213.543 211.75 213.54C218.27 213.353 224.773 212.767 231.26 211.78C232.207 211.633 232.21 211.453 231.27 211.24C228.34 210.58 225.41 209.83 222.41 209.65C219.137 209.45 215.857 209.163 212.57 208.79C211.65 208.683 211.3 208.183 211.52 207.29C211.773 206.25 212.323 205.377 213.17 204.67C214.837 203.277 216.363 201.933 217.75 200.64C231.217 188.087 247.257 172.45 265.87 153.73C269.75 149.83 273.84 146.26 277.63 142.37C278.357 141.63 279.167 140.997 280.06 140.47C280.255 140.355 280.482 140.309 280.705 140.338C280.928 140.367 281.134 140.47 281.29 140.63C295.28 154.89 310.12 169.1 323.46 182.8C329.54 189.047 336.607 195.893 344.66 203.34C345.56 204.167 346.217 205.123 346.63 206.21C347.223 207.77 346.697 208.687 345.05 208.96C339.157 209.947 333.173 210.723 327.1 211.29C326.113 211.383 326.11 211.493 327.09 211.62C332.763 212.36 338.567 212.65 344.5 212.49C344.645 212.486 344.789 212.511 344.924 212.563C345.059 212.616 345.182 212.694 345.287 212.795C345.391 212.895 345.474 213.016 345.531 213.149C345.589 213.282 345.619 213.425 345.62 213.57L345.79 248.43C345.79 248.857 345.58 249.11 345.16 249.19C343.647 249.477 342.093 249.673 340.5 249.78C335.16 250.147 329.617 250.547 323.87 250.98C323.223 251.027 323.223 251.097 323.87 251.19ZM276.67 213.32C276.892 213.315 277.103 213.223 277.258 213.064C277.413 212.905 277.5 212.692 277.5 212.47L277.51 195.75C277.51 195.525 277.42 195.308 277.261 195.149C277.102 194.99 276.885 194.9 276.66 194.9L259.28 194.91C259.168 194.91 259.056 194.932 258.952 194.976C258.849 195.019 258.754 195.082 258.675 195.162C258.596 195.242 258.534 195.337 258.492 195.442C258.45 195.546 258.429 195.658 258.43 195.77L258.73 212.89C258.731 213.002 258.755 213.114 258.799 213.217C258.844 213.32 258.909 213.414 258.99 213.492C259.07 213.57 259.166 213.631 259.271 213.672C259.376 213.713 259.488 213.733 259.6 213.73L276.67 213.32ZM298.844 195.747C298.845 195.645 298.825 195.543 298.786 195.448C298.748 195.353 298.691 195.267 298.619 195.194C298.547 195.121 298.461 195.064 298.366 195.024C298.272 194.984 298.171 194.963 298.068 194.963L281.728 194.877C281.626 194.877 281.524 194.896 281.43 194.935C281.335 194.974 281.248 195.031 281.176 195.103C281.103 195.175 281.045 195.261 281.005 195.355C280.966 195.449 280.945 195.551 280.944 195.653L280.856 212.533C280.855 212.635 280.875 212.737 280.914 212.832C280.952 212.927 281.009 213.013 281.081 213.086C281.153 213.159 281.239 213.216 281.334 213.256C281.428 213.296 281.529 213.317 281.632 213.317L297.972 213.403C298.074 213.403 298.176 213.384 298.27 213.345C298.365 213.306 298.452 213.249 298.524 213.177C298.597 213.105 298.655 213.019 298.695 212.925C298.734 212.83 298.755 212.729 298.756 212.627L298.844 195.747ZM277.75 217.06C277.753 216.93 277.73 216.801 277.682 216.68C277.635 216.558 277.564 216.448 277.474 216.354C277.384 216.26 277.276 216.185 277.157 216.133C277.038 216.081 276.91 216.053 276.78 216.05L259.92 215.7C259.788 215.697 259.657 215.721 259.535 215.77C259.413 215.818 259.301 215.891 259.207 215.983C259.113 216.075 259.038 216.185 258.987 216.306C258.936 216.428 258.91 216.558 258.91 216.69L258.87 233.82C258.87 233.953 258.896 234.084 258.948 234.206C259 234.328 259.075 234.439 259.17 234.531C259.266 234.623 259.378 234.695 259.502 234.743C259.626 234.791 259.757 234.814 259.89 234.81L276.4 234.38C276.652 234.372 276.892 234.269 277.07 234.09C277.249 233.912 277.352 233.672 277.36 233.42L277.75 217.06ZM298.49 216.938C298.492 216.798 298.466 216.658 298.413 216.528C298.361 216.397 298.284 216.278 298.186 216.178C298.088 216.077 297.971 215.997 297.841 215.942C297.712 215.886 297.573 215.857 297.433 215.855L281.974 215.666C281.69 215.663 281.417 215.772 281.214 215.97C281.011 216.169 280.895 216.439 280.891 216.723L280.69 233.162C280.688 233.302 280.714 233.442 280.767 233.572C280.819 233.703 280.896 233.822 280.994 233.922C281.092 234.023 281.209 234.103 281.339 234.158C281.468 234.214 281.607 234.243 281.747 234.245L297.206 234.434C297.49 234.437 297.763 234.328 297.966 234.13C298.169 233.931 298.285 233.661 298.289 233.377L298.49 216.938ZM299.18 247.53C299.18 247.458 299.152 247.39 299.101 247.339C299.05 247.288 298.982 247.26 298.91 247.26H258.91C258.838 247.26 258.77 247.288 258.719 247.339C258.668 247.39 258.64 247.458 258.64 247.53V293.99C258.64 294.062 258.668 294.13 258.719 294.181C258.77 294.232 258.838 294.26 258.91 294.26H298.91C298.982 294.26 299.05 294.232 299.101 294.181C299.152 294.13 299.18 294.062 299.18 293.99V247.53Z" fill="#FBFAFA"/>
<path d="M365.24 152.61C364.514 152.117 364.012 151.356 363.846 150.494C363.679 149.632 363.86 148.739 364.35 148.01L365.54 146.24C366.157 145.327 366.937 144.537 367.836 143.915C368.734 143.294 369.735 142.853 370.779 142.618C371.824 142.383 372.893 142.359 373.924 142.546C374.955 142.733 375.929 143.129 376.79 143.71L377.37 144.1C378.232 144.681 378.964 145.435 379.524 146.322C380.085 147.208 380.462 148.208 380.636 149.265C380.81 150.321 380.776 151.414 380.536 152.481C380.297 153.547 379.857 154.566 379.24 155.48L378.04 157.24C377.549 157.968 376.789 158.472 375.926 158.64C375.064 158.809 374.17 158.629 373.44 158.14L365.24 152.61Z" fill="#FBFAFA"/>
<path d="M223.508 156.845C224.27 157.922 225.638 158.265 226.562 157.611C227.486 156.956 227.616 155.553 226.854 154.475C226.091 153.398 224.724 153.055 223.8 153.709C222.876 154.364 222.745 155.767 223.508 156.845Z" fill="#FBFAFA"/>
<path d="M185.491 161.09L185.531 170.29C185.534 170.585 185.42 170.87 185.214 171.081C185.008 171.293 184.726 171.415 184.431 171.42L178.041 171.51C177.747 171.513 177.464 171.4 177.253 171.196C177.042 170.992 176.919 170.714 176.911 170.42L176.721 161.58C176.715 161.293 176.82 161.014 177.013 160.802C177.207 160.59 177.474 160.46 177.761 160.44L184.291 159.98C184.444 159.969 184.597 159.99 184.742 160.04C184.886 160.091 185.019 160.171 185.131 160.275C185.244 160.379 185.334 160.505 185.396 160.645C185.458 160.785 185.49 160.937 185.491 161.09Z" fill="#FBFAFA"/>
<path d="M385.449 168.31C385.203 168.683 385.043 168.65 384.969 168.21L383.999 162.25C383.879 161.503 384.196 161.147 384.949 161.18C385.376 161.193 385.779 161.283 386.159 161.45C387.179 161.897 387.603 162.667 387.429 163.76C387.203 165.18 386.543 166.697 385.449 168.31Z" fill="#FBFAFA"/>
<path d="M381.939 169.78C381.006 167.773 380.346 165.843 379.959 163.99C379.799 163.25 380.046 162.69 380.699 162.31L381.279 161.96C381.966 161.553 382.303 161.75 382.289 162.55L382.139 169.74C382.133 170.033 382.066 170.047 381.939 169.78Z" fill="#FBFAFA"/>
<path d="M200.289 164.54L201.839 176.29C201.848 176.352 201.843 176.415 201.825 176.476C201.806 176.536 201.775 176.591 201.733 176.638C201.691 176.684 201.64 176.721 201.582 176.746C201.524 176.77 201.462 176.782 201.399 176.78L189.129 176.27C189.045 176.268 188.964 176.242 188.894 176.195C188.825 176.148 188.771 176.081 188.739 176.004C188.707 175.926 188.699 175.841 188.715 175.758C188.731 175.676 188.771 175.6 188.829 175.54L199.549 164.3C199.605 164.241 199.676 164.198 199.755 164.178C199.834 164.158 199.918 164.16 199.995 164.185C200.073 164.211 200.142 164.257 200.194 164.32C200.246 164.383 200.279 164.459 200.289 164.54Z" fill="#FBFAFA"/>
<path d="M381.35 188.85C378.23 187.68 375.27 184.85 372.97 182.52C370.07 179.58 366.33 177.07 362.47 175.42C362.403 175.394 362.345 175.351 362.3 175.295C362.255 175.239 362.225 175.172 362.214 175.102C362.203 175.031 362.21 174.958 362.236 174.891C362.262 174.824 362.305 174.765 362.36 174.72C363.227 174 363.99 173.16 364.65 172.2C367.3 168.37 372.77 167.96 377.07 168.93C384.12 170.51 383.03 183.27 382.38 188.23C382.367 188.344 382.327 188.454 382.265 188.55C382.202 188.647 382.118 188.728 382.019 188.788C381.92 188.848 381.808 188.884 381.692 188.895C381.576 188.906 381.459 188.89 381.35 188.85Z" fill="#FBFAFA"/>
<path d="M348.9 175.847C350.462 177.339 351.987 178.277 352.308 177.941C352.628 177.606 351.622 176.125 350.061 174.633C348.5 173.141 346.975 172.203 346.654 172.539C346.334 172.874 347.339 174.355 348.9 175.847Z" fill="#829FE8"/>
<path d="M176.908 185.21C177.065 187.513 178.899 189.264 181.004 189.12C183.108 188.977 184.687 186.993 184.53 184.69C184.373 182.387 182.54 180.636 180.435 180.78C178.33 180.923 176.751 182.907 176.908 185.21Z" fill="#FBFAFA"/>
<path d="M194.44 188.5C194.294 188.893 193.86 189.777 193.14 191.15C192.607 192.163 192.024 192.547 191.39 192.3L189.53 189.48C189.387 189.261 189.296 189.012 189.264 188.752C189.233 188.492 189.262 188.229 189.349 187.982C189.436 187.735 189.579 187.512 189.766 187.33C189.954 187.147 190.181 187.01 190.43 186.93C191.71 186.52 194.65 186.28 194.44 188.5Z" fill="#FBFAFA"/>
<path d="M387.163 194.682C386.969 195.82 387.566 196.871 388.497 197.03C389.428 197.189 390.34 196.396 390.535 195.258C390.729 194.12 390.132 193.069 389.201 192.91C388.27 192.751 387.358 193.544 387.163 194.682Z" fill="#FBFAFA"/>
<path d="M161.279 200.127C162.884 199.97 164.069 198.662 163.926 197.205C163.783 195.748 162.367 194.695 160.762 194.853C159.157 195.01 157.971 196.318 158.114 197.775C158.257 199.231 159.674 200.285 161.279 200.127Z" fill="#FBFAFA"/>
<path d="M276.67 213.32L259.6 213.73C259.487 213.733 259.375 213.713 259.271 213.672C259.166 213.631 259.07 213.57 258.989 213.492C258.908 213.414 258.844 213.32 258.799 213.217C258.755 213.114 258.731 213.003 258.73 212.89L258.43 195.77C258.428 195.658 258.449 195.546 258.492 195.442C258.534 195.337 258.596 195.242 258.675 195.163C258.754 195.083 258.848 195.019 258.952 194.976C259.056 194.932 259.167 194.91 259.28 194.91L276.66 194.9C276.885 194.9 277.101 194.99 277.261 195.149C277.42 195.308 277.51 195.525 277.51 195.75L277.5 212.47C277.5 212.692 277.413 212.905 277.258 213.064C277.103 213.223 276.892 213.315 276.67 213.32Z" fill="#829FE8"/>
<path d="M298.069 194.963L281.729 194.877C281.298 194.875 280.947 195.223 280.945 195.653L280.857 212.533C280.854 212.964 281.202 213.315 281.633 213.317L297.972 213.403C298.403 213.405 298.754 213.058 298.757 212.627L298.845 195.747C298.847 195.316 298.5 194.965 298.069 194.963Z" fill="#829FE8"/>
<path d="M372.821 231.5L372.941 281.33C372.941 281.471 372.885 281.605 372.785 281.705C372.686 281.804 372.551 281.86 372.411 281.86L352.341 281.79C352.2 281.79 352.065 281.734 351.966 281.635C351.866 281.535 351.811 281.401 351.811 281.26L351.891 212.35C351.89 212.246 351.921 212.144 351.979 212.057C352.036 211.97 352.118 211.902 352.214 211.861C352.31 211.821 352.416 211.809 352.519 211.829C352.621 211.848 352.716 211.897 352.791 211.97L372.661 231.12C372.711 231.169 372.752 231.229 372.779 231.294C372.807 231.359 372.821 231.429 372.821 231.5Z" fill="#FBFAFA"/>
<path d="M203.949 212.89C204.436 212.21 204.689 212.29 204.709 213.13C205.129 234.983 205.166 256.773 204.819 278.5C204.806 279.527 204.772 280.55 204.719 281.57C204.692 282.09 204.419 282.343 203.899 282.33L185.109 281.86C184.689 281.847 184.496 281.63 184.529 281.21C184.849 276.93 185.009 272.753 185.009 268.68C185.009 257.633 185.006 246.44 184.999 235.1C184.989 233.24 185.229 231.3 186.639 229.92C191.139 225.52 195.656 221.263 200.189 217.15C201.496 215.957 202.749 214.537 203.949 212.89Z" fill="#FBFAFA"/>
<path d="M277.749 217.06L277.359 233.42C277.352 233.672 277.248 233.912 277.07 234.091C276.891 234.269 276.651 234.372 276.399 234.38L259.889 234.81C259.757 234.814 259.625 234.791 259.501 234.743C259.377 234.696 259.265 234.623 259.17 234.531C259.075 234.439 258.999 234.328 258.947 234.206C258.896 234.084 258.869 233.953 258.869 233.82L258.909 216.69C258.909 216.558 258.935 216.428 258.986 216.306C259.037 216.185 259.112 216.075 259.206 215.983C259.3 215.891 259.412 215.818 259.534 215.77C259.657 215.721 259.787 215.697 259.919 215.7L276.779 216.05C276.909 216.053 277.037 216.081 277.157 216.133C277.276 216.185 277.383 216.26 277.473 216.354C277.563 216.448 277.634 216.558 277.681 216.68C277.729 216.801 277.752 216.93 277.749 217.06Z" fill="#829FE8"/>
<path d="M297.433 215.855L281.974 215.666C281.383 215.659 280.898 216.132 280.891 216.723L280.69 233.162C280.683 233.753 281.156 234.238 281.747 234.245L297.206 234.434C297.797 234.441 298.282 233.968 298.289 233.377L298.49 216.938C298.497 216.347 298.024 215.862 297.433 215.855Z" fill="#829FE8"/>
<path d="M298.911 247.26H258.911C258.761 247.26 258.641 247.381 258.641 247.53V293.99C258.641 294.139 258.761 294.26 258.911 294.26H298.911C299.06 294.26 299.181 294.139 299.181 293.99V247.53C299.181 247.381 299.06 247.26 298.911 247.26Z" fill="#829FE8"/>
<path d="M350.95 351.99C351.31 350.09 351.497 348.097 351.51 346.01C351.623 327.97 351.703 308.633 351.75 288C351.75 287.627 351.937 287.44 352.31 287.44L372.52 287.76C372.847 287.767 373.01 287.937 373.01 288.27C372.95 309.42 373.44 331.36 372.96 353.69C372.952 354.047 372.827 354.392 372.605 354.671C372.383 354.951 372.076 355.151 371.73 355.24C353.337 359.9 335.477 364.747 318.15 369.78C317.912 369.851 317.659 369.847 317.422 369.768C317.186 369.69 316.98 369.54 316.83 369.34C313.163 364.467 308.42 361.173 302.6 359.46C298.867 358.367 295.003 357.317 291.01 356.31C289.98 356.05 288.78 355.41 288.65 354.24C288.631 354.055 288.649 353.867 288.706 353.689C288.762 353.512 288.854 353.348 288.976 353.208C289.098 353.068 289.248 352.955 289.415 352.876C289.583 352.797 289.765 352.754 289.95 352.75C309.91 352.217 330.093 352.087 350.5 352.36C350.608 352.36 350.712 352.323 350.794 352.255C350.876 352.187 350.931 352.094 350.95 351.99Z" fill="#FBFAFA"/>
<path d="M352.11 487.83C345.663 490.297 339.013 492.097 332.16 493.23L352.11 487.83Z" fill="#7B7773"/>
<path d="M330.11 493.77C329.203 494.243 328.223 494.507 327.17 494.56C327.663 493.847 328.643 493.583 330.11 493.77Z" fill="#7B7773"/>
</svg>
