<svg width="546" height="665" viewBox="0 0 546 665" fill="none" xmlns="http://www.w3.org/2000/svg">
<rect y="123" width="546" height="542" rx="12" fill="white"/>
<path d="M352.11 610.83L332.16 616.23" stroke="#BBB9B7" stroke-width="2"/>
<path d="M330.11 616.77C328.643 616.583 327.663 616.847 327.17 617.56" stroke="#BBB9B7" stroke-width="2"/>
<path d="M81.8798 508.7L78.3398 501.96" stroke="#BBB9B7" stroke-width="2"/>
<path d="M191.39 315.3C191.35 317.6 188.75 320.43 187.21 321.96C181.06 328.05 174.61 334.24 167.89 339.96C162.844 344.253 158.047 348.717 153.5 353.35C151.54 355.35 149.26 356.84 147.32 358.81C147.197 358.936 147.101 359.086 147.039 359.25C146.977 359.415 146.949 359.591 146.959 359.767C146.968 359.943 147.014 360.115 147.094 360.272C147.173 360.429 147.284 360.568 147.42 360.68L147.79 360.99C148.45 361.537 149.11 361.54 149.77 361C157.81 354.527 165.77 347.66 173.65 340.4C178.7 335.75 184.33 331.73 189.34 327.09C198.4 318.69 208.05 310.67 216.7 301.99C223.71 294.95 231.32 288.97 238.16 281.9C239.81 280.19 241.19 278.19 242.97 276.64C249.51 270.91 255.43 264.59 261.81 258.8C267.724 253.44 273.444 248.107 278.97 242.8C279.231 242.55 279.576 242.407 279.937 242.4C280.299 242.392 280.649 242.521 280.92 242.76C293.387 253.847 305.53 265.33 317.35 277.21C325.57 285.46 333.17 292.61 341.31 299.91C345.14 303.35 348.55 307.87 352.25 311C355.82 314.03 359.13 317.23 362.78 320.05C363.954 320.957 365.19 322.023 366.49 323.25C376.957 333.103 388.137 342.903 400.03 352.65C401.157 353.57 402.134 354.563 402.96 355.63C403.874 356.797 405.09 357.65 406.61 358.19C406.944 358.303 407.227 358.497 407.46 358.77C408.734 360.243 410.344 360.977 412.29 360.97C412.388 360.971 412.484 360.948 412.572 360.905C412.659 360.862 412.735 360.8 412.795 360.722C412.854 360.644 412.894 360.554 412.912 360.458C412.931 360.363 412.927 360.264 412.9 360.17C412.74 359.603 412.407 359.167 411.9 358.86C408.6 356.86 406.3 354.05 403.48 351.48C398.827 347.233 394.397 343.09 390.19 339.05C389.81 338.683 389.424 338.31 389.03 337.93C385.79 334.817 382.374 331.663 378.78 328.47C369.687 320.403 361.557 312.16 354.39 303.74C353.93 303.2 353.85 302.61 354.15 301.97C354.29 301.67 354.364 301.353 354.37 301.02L354.43 295.29" stroke="#4E4C4A" stroke-width="2"/>
<path d="M338.95 277.46L338.69 285.54C338.687 285.677 338.644 285.809 338.565 285.921C338.487 286.033 338.377 286.119 338.249 286.168C338.122 286.218 337.983 286.228 337.849 286.198C337.716 286.168 337.594 286.099 337.5 286C334.98 283.4 332.31 280.84 329.49 278.32C326.717 275.847 324.054 273.307 321.5 270.7C308.194 257.147 294.534 243.78 280.52 230.6C280.4 230.49 280.242 230.431 280.079 230.437C279.916 230.442 279.762 230.512 279.65 230.63C273.4 237.32 266.54 243.2 260.28 249.63C257.08 252.917 253.794 256.317 250.42 259.83C247.714 262.637 244.9 265.423 241.98 268.19C239.014 270.99 236.074 273.697 233.16 276.31C229.587 279.51 225.994 283.133 222.38 287.18C216.59 293.66 209.37 299.03 203.15 305.38C200.75 307.827 198.367 310.263 196 312.69C195.886 312.805 195.749 312.895 195.598 312.953C195.447 313.011 195.285 313.036 195.123 313.027C194.961 313.017 194.803 312.974 194.659 312.898C194.516 312.823 194.39 312.718 194.29 312.59C194.244 312.53 194.294 312.167 194.44 311.5" stroke="#4E4C4A" stroke-width="2"/>
<path d="M338.95 277.46C339.04 280.22 338.26 285.96 339.6 288C340.62 289.56 342.446 291.38 345.08 293.46C346.093 294.267 347.243 294.807 348.53 295.08C350.556 295.513 352.24 296.447 353.58 297.88C353.893 298.213 354.08 298.153 354.14 297.7L354.43 295.29" stroke="#BBB9B7" stroke-width="2"/>
<path d="M191.389 315.3C192.022 315.547 192.605 315.163 193.139 314.15C193.859 312.777 194.292 311.893 194.439 311.5" stroke="#BBB9B7" stroke-width="2"/>
<path d="M352.306 300.941C352.383 300.862 352.385 300.713 352.313 300.503C352.242 300.294 352.097 300.028 351.889 299.721C351.68 299.414 351.411 299.071 351.097 298.713C350.784 298.354 350.431 297.987 350.06 297.633C349.31 296.916 348.53 296.293 347.891 295.901C347.252 295.508 346.807 295.378 346.653 295.539C346.576 295.618 346.574 295.767 346.646 295.977C346.717 296.186 346.862 296.452 347.07 296.759C347.279 297.067 347.548 297.409 347.862 297.767C348.175 298.126 348.528 298.493 348.899 298.847C349.649 299.564 350.429 300.187 351.068 300.58C351.707 300.972 352.152 301.102 352.306 300.941Z" stroke="#4E4C4A" stroke-width="2"/>
<path d="M352.109 610.83L332.159 616.23C331.539 616.537 330.856 616.717 330.109 616.77C328.642 616.583 327.663 616.847 327.169 617.56C320.503 618.887 313.763 619.873 306.949 620.52C302.156 620.973 297.376 621.49 292.609 622.07C286.622 622.79 280.789 622.97 275.109 622.61C257.622 621.49 245.943 620.367 240.069 619.24C233.023 617.893 225.229 616.133 216.689 613.96C210.289 612.34 204.199 610.413 198.419 608.18C181.532 601.66 165.246 593.167 149.559 582.7C144.359 579.233 139.173 575.287 133.999 570.86C114.733 554.38 98.3225 535.343 84.7692 513.75C84.4292 513.203 83.9592 512.353 83.3592 511.2C82.8925 510.307 82.3992 509.473 81.8792 508.7L78.3392 501.96C72.7592 492.387 67.7292 481.233 63.2492 468.5C54.8492 444.633 51.0225 419.903 51.7692 394.31C52.0758 383.87 52.6292 373.97 53.4292 364.61C54.3358 354.003 56.4125 343.157 59.6592 332.07C67.3725 305.743 78.9192 281.417 94.2992 259.09C104.506 244.27 117.286 230.5 132.639 217.78C141.666 210.293 150.699 203.707 159.739 198.02C175.446 188.127 192.012 180.64 209.439 175.56C216.852 173.4 224.806 171.423 233.299 169.63C240.599 168.09 248.249 167.61 255.799 166.62C258.726 166.233 261.756 165.993 264.889 165.9C281.649 165.433 293.436 165.503 300.249 166.11C310.443 167.023 320.736 168.557 331.129 170.71C349.689 174.55 366.629 181.01 383.619 188.97C405.372 199.177 424.863 213.07 442.089 230.65C454.269 243.077 464.203 256.207 471.889 270.04C478.379 281.72 485.439 294.12 490.079 306.22C498.939 329.313 504.169 351.82 505.769 373.74C508.636 412.987 501.903 450.817 485.569 487.23C483.323 492.237 480.256 498.147 476.369 504.96C472.016 512.587 468.076 519.12 464.549 524.56C462.556 527.633 459.376 531.9 455.009 537.36C451.443 541.807 447.812 545.983 444.119 549.89C432.119 562.557 419.759 573.437 407.039 582.53C390.526 594.337 372.216 603.77 352.109 610.83ZM232.809 514.24C232.136 514.067 232.119 513.847 232.759 513.58C237.009 511.83 241.619 510.91 246.379 512.21C261.549 516.36 277.069 518.91 292.559 521.87C295.289 522.39 299.269 522.17 301.729 520.59C305.936 517.897 307.139 513.563 305.339 507.59C303.869 502.74 294.499 499.56 289.989 498.52C287.062 497.84 285.569 497.49 285.509 497.47C266.369 492.403 248.033 487.96 230.499 484.14C225.726 483.1 219.742 482.027 212.549 480.92C207.476 480.147 202.939 479.81 198.939 479.91C195.272 480.003 190.716 480.59 185.269 481.67C173.469 483.997 161.876 486.153 150.489 488.14C132.369 491.3 112.916 494.507 92.1292 497.76C91.1092 497.92 90.8625 498.443 91.3892 499.33C98.7758 511.67 106.606 522.81 114.879 532.75C118.149 536.69 121.829 540.36 125.359 544.02C125.606 544.273 125.914 544.458 126.254 544.556C126.594 544.654 126.954 544.662 127.299 544.58C140.019 541.527 153.052 538.777 166.399 536.33C167.872 536.057 169.242 536.02 170.509 536.22C184.976 538.54 198.202 540.847 210.189 543.14C227.469 546.45 244.419 549.41 262.249 553.26C266.216 554.113 270.199 554.847 274.199 555.46C285.179 557.15 295.569 550.73 305.339 546.75C334.872 534.703 360.333 524.44 381.719 515.96C390.393 512.527 399.823 509.113 410.009 505.72C411.289 505.293 412.643 504.037 414.069 501.95C414.509 501.303 414.639 500.61 414.459 499.87C413.529 496.06 408.619 493.37 405.029 492.71C402.419 492.23 400.099 491.31 397.599 490.57C392.349 489.02 387.769 491.74 382.989 493.23C371.639 496.75 360.709 500.79 349.499 504.34C345.879 505.48 342.226 506.68 338.539 507.94C333.319 509.727 327.599 511.533 321.379 513.36C321.297 513.386 321.209 513.391 321.124 513.375C321.039 513.359 320.959 513.323 320.89 513.269C320.822 513.215 320.767 513.145 320.73 513.065C320.693 512.985 320.676 512.898 320.679 512.81C320.893 508.423 320.439 504.017 319.319 499.59C319.219 499.197 319.369 498.957 319.769 498.87C324.789 497.797 329.709 496.56 334.529 495.16C347.789 491.32 360.876 487.447 373.789 483.54C374.748 483.253 375.773 483.253 376.739 483.54C378.329 484.03 381.789 485.38 383.449 485.2C383.949 485.147 384.066 484.907 383.799 484.48C382.639 482.613 381.516 480.747 380.429 478.88C379.389 477.08 379.399 474.92 379.389 472.89C379.323 434.51 379.212 396.383 379.059 358.51C379.053 357.763 379.289 357.677 379.769 358.25C383.769 363.043 388.316 367.697 393.409 372.21C394.683 373.343 395.242 374.657 395.089 376.15C394.943 377.577 394.869 378.32 394.869 378.38C394.923 412.247 394.966 446.13 394.999 480.03C394.999 480.857 395.406 481.197 396.219 481.05C399.319 480.497 402.606 480.32 406.079 480.52C407.946 480.627 409.829 480.5 411.729 480.14C422.019 478.19 433.379 485.3 434.029 496.36C434.179 498.75 432.799 500.45 430.419 500.85C427.809 501.3 421.139 502.29 419.789 504.92C417.249 509.88 414.509 512.43 409.069 513.99C399.219 516.82 390.329 520.89 380.749 524.61C357.556 533.61 336.153 542.167 316.539 550.28C308.126 553.76 300.076 557.203 292.389 560.61C285.276 563.763 278.146 564.71 270.999 563.45C244.919 558.87 215.589 553.56 183.009 547.52C179.756 546.92 175.973 546.503 171.659 546.27C168.666 546.11 165.759 546.35 162.939 546.99C153.693 549.083 144.723 551.523 136.029 554.31C135.905 554.349 135.793 554.419 135.703 554.512C135.613 554.605 135.547 554.72 135.512 554.845C135.478 554.97 135.475 555.102 135.504 555.229C135.533 555.355 135.593 555.473 135.679 555.57C136.666 556.723 137.812 557.823 139.119 558.87C145.679 564.083 151.539 568.513 156.699 572.16C173.339 583.9 191.332 592.88 210.679 599.1C243.489 609.65 279.759 612.88 314.159 606.86C324.646 605.02 333.759 602.903 341.499 600.51C356.993 595.717 371.939 589.23 386.339 581.05C412.449 566.21 435.139 544.21 452.849 519.73C456.569 514.59 459.799 509.09 463.109 503.69C481.076 474.35 491.106 442.213 493.199 407.28C494.659 383.01 492.789 359.32 486.569 336.3C483.243 324.02 478.379 311.057 471.979 297.41C467.729 288.36 462.319 279.59 456.799 271.2C435.499 238.85 403.839 213.07 368.769 197.93C340.422 185.697 310.362 179.533 278.589 179.44C233.609 179.313 192.366 192.14 154.859 217.92C141.559 227.06 129.639 238.55 118.689 250.57C114.036 255.69 109.862 260.783 106.169 265.85C89.4025 288.877 77.5258 314.047 70.5392 341.36C68.8525 347.967 67.5725 354.53 66.6992 361.05C63.8192 382.637 63.8158 404.187 66.6892 425.7C68.4558 438.947 71.4625 451.657 75.7092 463.83C77.6892 469.49 80.5592 474.85 82.8792 480.38C83.4658 481.773 84.2358 483.01 85.1892 484.09C85.3739 484.299 85.6062 484.461 85.8658 484.56C86.1254 484.66 86.4046 484.694 86.6792 484.66C111.039 481.673 135.429 478.06 159.849 473.82C160.619 473.68 161.449 473.7 162.229 473.71C162.682 473.723 162.916 473.5 162.929 473.04C163.062 466.533 163.132 460.273 163.139 454.26C163.166 428.367 163.103 402.267 162.949 375.96C162.942 375.027 163.263 374.223 163.909 373.55L177.609 359.16C177.659 359.109 177.723 359.073 177.792 359.057C177.862 359.04 177.935 359.044 178.001 359.067C178.068 359.09 178.126 359.132 178.168 359.188C178.21 359.243 178.235 359.31 178.239 359.38C178.499 362.833 178.643 366.387 178.669 370.04C178.942 404.06 178.946 437.92 178.679 471.62C178.672 472.567 179.139 472.98 180.079 472.86L183.459 472.42C183.956 472.353 184.41 472.105 184.733 471.722C185.056 471.34 185.226 470.851 185.209 470.35C184.616 451.283 184.609 431.607 185.189 411.32C185.194 411.17 185.258 411.027 185.366 410.923C185.474 410.818 185.619 410.76 185.769 410.76L204.499 410.74C204.846 410.74 205.019 410.913 205.019 411.26L204.959 470.23C204.959 470.603 205.146 470.783 205.519 470.77C210.289 470.63 214.999 468.38 219.769 469.33C229.082 471.197 238.436 473.417 247.829 475.99C257.679 478.69 267.619 481.01 277.589 483.54C280.329 484.233 283.072 484.893 285.819 485.52C290.652 486.613 296.103 488.28 302.169 490.52C307.489 492.48 310.079 495.19 312.399 500.15C315.073 505.85 315.306 511.32 313.099 516.56C311.639 520.033 309.576 522.543 306.909 524.09C301.669 527.15 296.999 528.61 291.239 527.65C286.349 526.84 281.589 526.18 276.709 525.09C267.919 523.11 259.059 521.02 250.169 519.4C243.859 518.26 238.699 515.73 232.809 514.24Z" fill="#FBFAFA"/>
<path d="M232.81 514.24C238.7 515.73 243.86 518.26 250.17 519.4C259.06 521.02 267.92 523.11 276.71 525.09C281.59 526.18 286.35 526.84 291.24 527.65C297 528.61 301.67 527.15 306.91 524.09C309.576 522.543 311.64 520.033 313.1 516.56C315.306 511.32 315.073 505.85 312.4 500.15C310.08 495.19 307.49 492.48 302.17 490.52C296.103 488.28 290.653 486.613 285.82 485.52C283.073 484.893 280.33 484.233 277.59 483.54C267.62 481.01 257.68 478.69 247.83 475.99C238.436 473.417 229.083 471.197 219.77 469.33C215 468.38 210.29 470.63 205.52 470.77C205.146 470.783 204.96 470.603 204.96 470.23L205.02 411.26C205.02 410.913 204.846 410.74 204.5 410.74L185.77 410.76C185.619 410.76 185.475 410.818 185.366 410.923C185.258 411.027 185.195 411.17 185.19 411.32C184.61 431.607 184.616 451.283 185.21 470.35C185.226 470.851 185.057 471.34 184.733 471.722C184.41 472.105 183.956 472.353 183.46 472.42L180.08 472.86C179.14 472.98 178.673 472.567 178.68 471.62C178.946 437.92 178.943 404.06 178.67 370.04C178.643 366.387 178.5 362.833 178.24 359.38C178.236 359.31 178.211 359.243 178.169 359.188C178.127 359.132 178.069 359.09 178.002 359.067C177.935 359.044 177.863 359.04 177.793 359.057C177.723 359.073 177.66 359.109 177.61 359.16L163.91 373.55C163.263 374.223 162.943 375.027 162.95 375.96C163.103 402.267 163.166 428.367 163.14 454.26C163.133 460.273 163.063 466.533 162.93 473.04C162.916 473.5 162.683 473.723 162.23 473.71C161.45 473.7 160.62 473.68 159.85 473.82C135.43 478.06 111.04 481.673 86.6796 484.66C86.4051 484.694 86.1259 484.66 85.8662 484.56C85.6066 484.461 85.3744 484.299 85.1896 484.09C84.2363 483.01 83.4663 481.773 82.8796 480.38C80.5596 474.85 77.6896 469.49 75.7096 463.83C71.4629 451.657 68.4563 438.947 66.6896 425.7C63.8163 404.187 63.8196 382.637 66.6996 361.05C67.5729 354.53 68.8529 347.967 70.5396 341.36C77.5263 314.047 89.4029 288.877 106.17 265.85C109.863 260.783 114.036 255.69 118.69 250.57C129.64 238.55 141.56 227.06 154.86 217.92C192.366 192.14 233.61 179.313 278.59 179.44C310.363 179.533 340.423 185.697 368.77 197.93C403.84 213.07 435.5 238.85 456.8 271.2C462.32 279.59 467.73 288.36 471.98 297.41C478.38 311.057 483.243 324.02 486.57 336.3C492.79 359.32 494.66 383.01 493.2 407.28C491.106 442.213 481.076 474.35 463.11 503.69C459.8 509.09 456.57 514.59 452.85 519.73C435.14 544.21 412.45 566.21 386.34 581.05C371.94 589.23 356.993 595.717 341.5 600.51C333.76 602.903 324.646 605.02 314.16 606.86C279.76 612.88 243.49 609.65 210.68 599.1C191.333 592.88 173.34 583.9 156.7 572.16C151.54 568.513 145.68 564.083 139.12 558.87C137.813 557.823 136.666 556.723 135.68 555.57C135.594 555.473 135.533 555.355 135.504 555.229C135.475 555.102 135.478 554.97 135.513 554.845C135.548 554.72 135.613 554.605 135.703 554.512C135.794 554.419 135.906 554.349 136.03 554.31C144.723 551.523 153.693 549.083 162.94 546.99C165.76 546.35 168.666 546.11 171.66 546.27C175.973 546.503 179.756 546.92 183.01 547.52C215.59 553.56 244.92 558.87 271 563.45C278.146 564.71 285.276 563.763 292.39 560.61C300.076 557.203 308.126 553.76 316.54 550.28C336.153 542.167 357.556 533.61 380.75 524.61C390.33 520.89 399.22 516.82 409.07 513.99C414.51 512.43 417.25 509.88 419.79 504.92C421.14 502.29 427.81 501.3 430.42 500.85C432.8 500.45 434.18 498.75 434.03 496.36C433.38 485.3 422.02 478.19 411.73 480.14C409.83 480.5 407.946 480.627 406.08 480.52C402.606 480.32 399.32 480.497 396.22 481.05C395.406 481.197 395 480.857 395 480.03C394.966 446.13 394.923 412.247 394.87 378.38C394.87 378.32 394.943 377.577 395.09 376.15C395.243 374.657 394.683 373.343 393.41 372.21C388.316 367.697 383.77 363.043 379.77 358.25C379.29 357.677 379.053 357.763 379.06 358.51C379.213 396.383 379.323 434.51 379.39 472.89C379.4 474.92 379.39 477.08 380.43 478.88C381.516 480.747 382.64 482.613 383.8 484.48C384.066 484.907 383.95 485.147 383.45 485.2C381.79 485.38 378.33 484.03 376.74 483.54C375.774 483.253 374.749 483.253 373.79 483.54C360.876 487.447 347.79 491.32 334.53 495.16C329.71 496.56 324.79 497.797 319.77 498.87C319.37 498.957 319.22 499.197 319.32 499.59C320.44 504.017 320.893 508.423 320.68 512.81C320.676 512.898 320.694 512.985 320.73 513.065C320.767 513.145 320.822 513.215 320.891 513.269C320.959 513.323 321.039 513.359 321.124 513.375C321.21 513.391 321.297 513.386 321.38 513.36C327.6 511.533 333.32 509.727 338.54 507.94C342.226 506.68 345.88 505.48 349.5 504.34C360.71 500.79 371.64 496.75 382.99 493.23C387.77 491.74 392.35 489.02 397.6 490.57C400.1 491.31 402.42 492.23 405.03 492.71C408.62 493.37 413.53 496.06 414.46 499.87C414.64 500.61 414.51 501.303 414.07 501.95C412.643 504.037 411.29 505.293 410.01 505.72C399.823 509.113 390.393 512.527 381.72 515.96C360.333 524.44 334.873 534.703 305.34 546.75C295.57 550.73 285.18 557.15 274.2 555.46C270.2 554.847 266.216 554.113 262.25 553.26C244.42 549.41 227.47 546.45 210.19 543.14C198.203 540.847 184.976 538.54 170.51 536.22C169.243 536.02 167.873 536.057 166.4 536.33C153.053 538.777 140.02 541.527 127.3 544.58C126.955 544.662 126.594 544.654 126.254 544.556C125.914 544.458 125.606 544.273 125.36 544.02C121.83 540.36 118.15 536.69 114.88 532.75C106.606 522.81 98.7763 511.67 91.3896 499.33C90.8629 498.443 91.1096 497.92 92.1296 497.76C112.916 494.507 132.37 491.3 150.49 488.14C161.876 486.153 173.47 483.997 185.27 481.67C190.716 480.59 195.273 480.003 198.94 479.91C202.94 479.81 207.476 480.147 212.55 480.92C219.743 482.027 225.726 483.1 230.5 484.14C248.033 487.96 266.37 492.403 285.51 497.47C285.57 497.49 287.063 497.84 289.99 498.52C294.5 499.56 303.87 502.74 305.34 507.59C307.14 513.563 305.936 517.897 301.73 520.59C299.27 522.17 295.29 522.39 292.56 521.87C277.07 518.91 261.55 516.36 246.38 512.21C241.62 510.91 237.01 511.83 232.76 513.58C232.12 513.847 232.136 514.067 232.81 514.24ZM194.44 311.5C194.65 309.28 191.71 309.52 190.43 309.93C190.181 310.01 189.953 310.147 189.766 310.33C189.578 310.512 189.435 310.735 189.348 310.982C189.261 311.229 189.232 311.493 189.264 311.752C189.295 312.012 189.386 312.261 189.53 312.48L191.39 315.3C191.35 317.6 188.75 320.43 187.21 321.96C181.06 328.05 174.61 334.24 167.89 339.96C162.843 344.253 158.046 348.717 153.5 353.35C151.54 355.35 149.26 356.84 147.32 358.81C147.196 358.936 147.101 359.086 147.038 359.251C146.976 359.415 146.949 359.591 146.958 359.767C146.968 359.943 147.013 360.115 147.093 360.272C147.172 360.429 147.284 360.568 147.42 360.68L147.79 360.99C148.45 361.537 149.11 361.54 149.77 361C157.81 354.527 165.77 347.66 173.65 340.4C178.7 335.75 184.33 331.73 189.34 327.09C198.4 318.69 208.05 310.67 216.7 301.99C223.71 294.95 231.32 288.97 238.16 281.9C239.81 280.19 241.19 278.19 242.97 276.64C249.51 270.91 255.43 264.59 261.81 258.8C267.723 253.44 273.443 248.107 278.97 242.8C279.23 242.55 279.576 242.407 279.937 242.4C280.298 242.392 280.649 242.521 280.92 242.76C293.386 253.847 305.53 265.33 317.35 277.21C325.57 285.46 333.17 292.61 341.31 299.91C345.14 303.35 348.55 307.87 352.25 311C355.82 314.03 359.13 317.23 362.78 320.05C363.953 320.957 365.19 322.023 366.49 323.25C376.956 333.103 388.136 342.903 400.03 352.65C401.156 353.57 402.133 354.563 402.96 355.63C403.873 356.797 405.09 357.65 406.61 358.19C406.943 358.303 407.226 358.497 407.46 358.77C408.733 360.243 410.343 360.977 412.29 360.97C412.387 360.971 412.483 360.948 412.571 360.905C412.658 360.862 412.735 360.8 412.794 360.722C412.853 360.644 412.893 360.554 412.912 360.458C412.93 360.363 412.926 360.264 412.9 360.17C412.74 359.603 412.406 359.167 411.9 358.86C408.6 356.86 406.3 354.05 403.48 351.48C398.826 347.233 394.396 343.09 390.19 339.05C389.81 338.683 389.423 338.31 389.03 337.93C385.79 334.817 382.373 331.663 378.78 328.47C369.686 320.403 361.556 312.16 354.39 303.74C353.93 303.2 353.85 302.61 354.15 301.97C354.29 301.67 354.363 301.353 354.37 301.02L354.43 295.29L354.79 252.71C354.791 252.648 354.78 252.586 354.757 252.529C354.733 252.471 354.699 252.419 354.655 252.375C354.611 252.331 354.559 252.296 354.501 252.273C354.443 252.25 354.382 252.239 354.32 252.24L339.69 252.25C339.582 252.25 339.476 252.271 339.377 252.313C339.278 252.354 339.189 252.414 339.113 252.491C339.038 252.567 338.978 252.658 338.938 252.757C338.898 252.856 338.878 252.963 338.88 253.07L338.95 277.46L338.69 285.54C338.687 285.677 338.643 285.809 338.565 285.921C338.486 286.033 338.376 286.119 338.249 286.168C338.121 286.218 337.982 286.228 337.849 286.198C337.715 286.168 337.594 286.099 337.5 286C334.98 283.4 332.31 280.84 329.49 278.32C326.716 275.847 324.053 273.307 321.5 270.7C308.193 257.147 294.533 243.78 280.52 230.6C280.4 230.49 280.241 230.431 280.078 230.437C279.916 230.442 279.762 230.512 279.65 230.63C273.4 237.32 266.54 243.2 260.28 249.63C257.08 252.917 253.793 256.317 250.42 259.83C247.713 262.637 244.9 265.423 241.98 268.19C239.013 270.99 236.073 273.697 233.16 276.31C229.586 279.51 225.993 283.133 222.38 287.18C216.59 293.66 209.37 299.03 203.15 305.38C200.75 307.827 198.366 310.263 196 312.69C195.886 312.805 195.748 312.895 195.597 312.953C195.446 313.011 195.284 313.036 195.122 313.027C194.96 313.017 194.802 312.974 194.659 312.898C194.515 312.823 194.389 312.718 194.29 312.59C194.243 312.53 194.293 312.167 194.44 311.5ZM245.8 243.6C245.8 242.82 245.49 242.072 244.939 241.521C244.387 240.97 243.639 240.66 242.86 240.66C242.08 240.66 241.332 240.97 240.781 241.521C240.229 242.072 239.92 242.82 239.92 243.6C239.92 244.38 240.229 245.128 240.781 245.679C241.332 246.23 242.08 246.54 242.86 246.54C243.639 246.54 244.387 246.23 244.939 245.679C245.49 245.128 245.8 244.38 245.8 243.6ZM194.366 254.301C194.741 253.638 194.808 252.838 194.552 252.074C194.297 251.311 193.739 250.649 193.003 250.232C192.638 250.026 192.241 249.886 191.833 249.821C191.425 249.756 191.015 249.767 190.626 249.853C190.237 249.939 189.876 250.099 189.565 250.323C189.254 250.547 188.999 250.831 188.813 251.159C188.438 251.822 188.371 252.623 188.627 253.386C188.883 254.149 189.44 254.811 190.176 255.228C190.541 255.434 190.939 255.574 191.346 255.639C191.754 255.704 192.164 255.693 192.553 255.607C192.943 255.521 193.303 255.361 193.614 255.137C193.925 254.913 194.18 254.629 194.366 254.301ZM223.09 252.66C223.09 252.495 223.057 252.332 222.994 252.179C222.93 252.027 222.837 251.889 222.72 251.773C222.603 251.656 222.464 251.565 222.311 251.502C222.158 251.44 221.995 251.409 221.83 251.41L209.03 251.6C208.705 251.605 208.395 251.736 208.166 251.966C207.936 252.196 207.805 252.505 207.8 252.83L207.57 269.42C207.567 269.748 207.693 270.064 207.922 270.3C208.15 270.536 208.462 270.672 208.79 270.68L221.74 270.92C221.906 270.924 222.072 270.895 222.227 270.834C222.382 270.773 222.524 270.681 222.643 270.565C222.762 270.448 222.857 270.309 222.922 270.155C222.986 270.002 223.02 269.837 223.02 269.67L223.09 252.66ZM362.93 274.54C362.95 267.52 363.07 260.57 362.06 253.87C362.027 253.64 361.929 253.426 361.778 253.252C361.627 253.078 361.43 252.952 361.21 252.89C360.596 252.71 360.033 252.937 359.52 253.57C359.307 253.834 359.2 254.165 359.22 254.5C359.706 262.987 359.773 270.823 359.42 278.01C359.11 284.29 359.23 290.47 360.13 296.24C360.456 298.293 361.056 298.38 361.93 296.5C362.356 295.587 362.583 294.753 362.61 294C362.803 287.513 362.91 281.027 362.93 274.54ZM328.548 258.32C328.846 258.41 329.18 258.332 329.478 258.103C329.777 257.873 330.015 257.512 330.14 257.098C330.202 256.893 330.234 256.682 330.235 256.475C330.236 256.269 330.205 256.072 330.145 255.896C330.085 255.719 329.996 255.567 329.883 255.448C329.771 255.328 329.638 255.244 329.491 255.2C329.194 255.11 328.859 255.188 328.561 255.417C328.262 255.647 328.024 256.008 327.9 256.422C327.838 256.627 327.805 256.838 327.804 257.045C327.804 257.251 327.834 257.448 327.894 257.624C327.955 257.801 328.043 257.953 328.156 258.072C328.268 258.192 328.401 258.276 328.548 258.32ZM323.87 373.98C329.616 373.547 335.16 373.147 340.5 372.78C342.093 372.673 343.646 372.477 345.16 372.19C345.58 372.11 345.79 371.857 345.79 371.43L345.62 336.57C345.618 336.425 345.588 336.282 345.531 336.149C345.474 336.016 345.391 335.896 345.286 335.795C345.182 335.694 345.059 335.616 344.924 335.563C344.789 335.511 344.644 335.486 344.5 335.49C338.566 335.65 332.763 335.36 327.09 334.62C326.11 334.493 326.113 334.383 327.1 334.29C333.173 333.723 339.156 332.947 345.05 331.96C346.696 331.687 347.223 330.77 346.63 329.21C346.216 328.123 345.56 327.167 344.66 326.34C336.606 318.893 329.54 312.047 323.46 305.8C310.12 292.1 295.28 277.89 281.29 263.63C281.133 263.47 280.927 263.367 280.704 263.338C280.481 263.309 280.254 263.355 280.06 263.47C279.166 263.997 278.356 264.63 277.63 265.37C273.84 269.26 269.75 272.83 265.87 276.73C247.256 295.45 231.216 311.087 217.75 323.64C216.363 324.933 214.836 326.277 213.17 327.67C212.323 328.377 211.773 329.25 211.52 330.29C211.3 331.183 211.65 331.683 212.57 331.79C215.856 332.163 219.136 332.45 222.41 332.65C225.41 332.83 228.34 333.58 231.27 334.24C232.21 334.453 232.206 334.633 231.26 334.78C224.773 335.767 218.27 336.353 211.75 336.54C211.624 336.543 211.505 336.593 211.417 336.681C211.329 336.769 211.28 336.887 211.28 337.01L211.2 371.72C211.2 372.087 211.383 372.27 211.75 372.27C218.01 372.263 224.093 372.603 230 373.29C231.18 373.43 231.19 373.623 230.03 373.87C228.97 374.103 227.876 374.263 226.75 374.35C222.056 374.73 217.15 375.057 212.03 375.33C211.496 375.357 211.23 375.64 211.23 376.18V405.09C211.23 405.429 211.354 405.757 211.578 406.011C211.803 406.265 212.113 406.429 212.45 406.47C216.37 406.977 220.16 407.143 223.82 406.97C224.52 406.937 224.556 407.077 223.93 407.39C222.983 407.87 221.983 408.107 220.93 408.1C217.816 408.087 215.04 408.36 212.6 408.92C212.227 409.006 211.894 409.215 211.655 409.514C211.415 409.814 211.283 410.186 211.28 410.57C211.266 426.297 211.24 442.107 211.2 458C211.193 460.347 211.12 462.653 210.98 464.92C210.974 464.996 210.986 465.072 211.016 465.143C211.046 465.213 211.093 465.275 211.153 465.324C211.213 465.373 211.283 465.407 211.359 465.424C211.435 465.441 211.514 465.439 211.59 465.42C216.93 464.03 221.91 463.22 227.5 464.48C235.153 466.213 242.81 467.967 250.47 469.74C260.24 472 270.59 475.18 280.45 477.57C280.511 477.584 280.575 477.582 280.636 477.564C280.696 477.546 280.751 477.513 280.795 477.468C280.839 477.423 280.871 477.367 280.887 477.306C280.904 477.245 280.905 477.181 280.89 477.12L279.33 470.59C279.284 470.397 279.281 470.196 279.322 470.001C279.364 469.807 279.447 469.624 279.568 469.466C279.689 469.308 279.843 469.179 280.02 469.088C280.196 468.997 280.391 468.946 280.59 468.94C285.483 468.753 290.34 468.663 295.16 468.67C311.153 468.69 326.053 468.753 339.86 468.86C341.526 468.873 343.246 468.79 345.02 468.61C345.198 468.591 345.364 468.507 345.485 468.374C345.607 468.242 345.676 468.07 345.68 467.89C345.873 450.05 345.923 432.4 345.83 414.94C345.816 412.827 345.77 410.787 345.69 408.82C345.676 408.48 345.503 408.283 345.17 408.23C341.81 407.71 338.44 407.283 335.06 406.95C334.973 406.937 334.93 406.887 334.93 406.8C334.93 406.713 334.976 406.667 335.07 406.66C338.483 406.52 341.813 406.293 345.06 405.98C345.54 405.933 345.78 405.67 345.78 405.19L345.88 377.03C345.88 376.675 345.739 376.335 345.488 376.082C345.238 375.83 344.897 375.685 344.54 375.68C337.206 375.6 330.316 375.103 323.87 374.19C323.223 374.097 323.223 374.027 323.87 373.98ZM365.24 275.61L373.44 281.14C374.169 281.629 375.063 281.809 375.926 281.64C376.788 281.472 377.548 280.968 378.04 280.24L379.24 278.48C379.856 277.566 380.296 276.547 380.536 275.481C380.775 274.414 380.809 273.321 380.635 272.265C380.462 271.208 380.084 270.208 379.523 269.322C378.963 268.435 378.231 267.681 377.37 267.1L376.79 266.71C375.929 266.129 374.955 265.733 373.923 265.546C372.892 265.359 371.823 265.383 370.779 265.618C369.734 265.853 368.734 266.294 367.835 266.915C366.936 267.537 366.156 268.327 365.54 269.24L364.35 271.01C363.859 271.739 363.678 272.632 363.845 273.494C364.012 274.356 364.513 275.117 365.24 275.61ZM226.561 280.611C226.78 280.455 226.962 280.251 227.096 280.009C227.229 279.767 227.312 279.493 227.339 279.202C227.366 278.911 227.337 278.608 227.254 278.312C227.17 278.016 227.034 277.732 226.853 277.475C226.671 277.219 226.448 276.996 226.197 276.819C225.945 276.642 225.67 276.514 225.386 276.443C225.102 276.372 224.816 276.359 224.544 276.405C224.272 276.45 224.018 276.554 223.799 276.709C223.579 276.865 223.397 277.069 223.263 277.311C223.13 277.553 223.047 277.827 223.02 278.118C222.993 278.41 223.022 278.712 223.105 279.008C223.189 279.304 223.325 279.588 223.507 279.845C223.688 280.101 223.911 280.324 224.162 280.501C224.414 280.678 224.69 280.806 224.973 280.877C225.257 280.948 225.543 280.961 225.815 280.915C226.088 280.87 226.341 280.766 226.561 280.611ZM185.49 284.09C185.489 283.937 185.456 283.785 185.394 283.645C185.333 283.505 185.243 283.379 185.13 283.275C185.018 283.171 184.885 283.091 184.74 283.04C184.596 282.99 184.442 282.969 184.29 282.98L177.76 283.44C177.473 283.46 177.206 283.59 177.012 283.802C176.818 284.014 176.714 284.293 176.72 284.58L176.91 293.42C176.917 293.714 177.04 293.992 177.252 294.196C177.463 294.4 177.746 294.513 178.04 294.51L184.43 294.42C184.725 294.415 185.006 294.293 185.212 294.081C185.418 293.87 185.532 293.585 185.53 293.29L185.49 284.09ZM385.45 291.31C386.543 289.697 387.203 288.18 387.43 286.76C387.603 285.667 387.18 284.897 386.16 284.45C385.78 284.283 385.376 284.193 384.95 284.18C384.196 284.147 383.88 284.503 384 285.25L384.97 291.21C385.043 291.65 385.203 291.683 385.45 291.31ZM381.94 292.78C382.066 293.047 382.133 293.033 382.14 292.74L382.29 285.55C382.303 284.75 381.966 284.553 381.28 284.96L380.7 285.31C380.046 285.69 379.8 286.25 379.96 286.99C380.346 288.843 381.006 290.773 381.94 292.78ZM200.29 287.54C200.279 287.459 200.246 287.383 200.194 287.32C200.142 287.257 200.073 287.211 199.996 287.185C199.918 287.16 199.835 287.158 199.756 287.178C199.677 287.198 199.605 287.241 199.55 287.3L188.83 298.54C188.771 298.6 188.731 298.676 188.715 298.758C188.699 298.841 188.708 298.926 188.74 299.004C188.772 299.081 188.826 299.148 188.895 299.195C188.964 299.242 189.046 299.268 189.13 299.27L201.4 299.78C201.462 299.782 201.525 299.77 201.582 299.746C201.64 299.721 201.692 299.684 201.734 299.638C201.776 299.591 201.807 299.536 201.825 299.476C201.843 299.415 201.848 299.352 201.84 299.29L200.29 287.54ZM372.97 305.52C375.27 307.85 378.23 310.68 381.35 311.85C381.459 311.89 381.576 311.906 381.692 311.895C381.807 311.884 381.919 311.848 382.018 311.788C382.118 311.728 382.202 311.647 382.264 311.55C382.327 311.454 382.366 311.344 382.38 311.23C383.03 306.27 384.12 293.51 377.07 291.93C372.77 290.96 367.3 291.37 364.65 295.2C363.99 296.16 363.226 297 362.36 297.72C362.304 297.765 362.261 297.824 362.236 297.891C362.21 297.958 362.202 298.031 362.213 298.102C362.225 298.172 362.254 298.239 362.299 298.295C362.344 298.351 362.403 298.394 362.47 298.42C366.33 300.07 370.07 302.58 372.97 305.52ZM181.004 312.12C181.504 312.086 181.993 311.945 182.441 311.703C182.889 311.462 183.288 311.127 183.616 310.715C183.943 310.304 184.192 309.825 184.349 309.306C184.507 308.787 184.568 308.238 184.531 307.69C184.493 307.143 184.358 306.607 184.132 306.114C183.906 305.621 183.594 305.181 183.213 304.817C182.833 304.454 182.392 304.176 181.915 303.998C181.439 303.82 180.936 303.746 180.435 303.78C179.935 303.814 179.447 303.955 178.998 304.197C178.55 304.438 178.151 304.773 177.824 305.185C177.496 305.596 177.247 306.075 177.09 306.594C176.933 307.113 176.871 307.662 176.908 308.21C176.946 308.757 177.081 309.293 177.307 309.786C177.533 310.279 177.845 310.719 178.226 311.083C178.606 311.446 179.047 311.724 179.524 311.902C180 312.08 180.503 312.154 181.004 312.12ZM388.497 320.03C388.719 320.068 388.947 320.052 389.169 319.984C389.392 319.915 389.603 319.795 389.793 319.63C389.982 319.466 390.145 319.26 390.272 319.025C390.4 318.789 390.489 318.529 390.535 318.258C390.581 317.988 390.584 317.712 390.542 317.448C390.5 317.183 390.414 316.935 390.29 316.717C390.167 316.499 390.007 316.315 389.82 316.177C389.633 316.038 389.423 315.948 389.202 315.91C388.98 315.872 388.752 315.888 388.53 315.956C388.308 316.025 388.096 316.145 387.907 316.31C387.717 316.474 387.554 316.68 387.427 316.915C387.3 317.151 387.21 317.411 387.164 317.682C387.118 317.952 387.116 318.228 387.158 318.492C387.2 318.757 387.285 319.005 387.409 319.223C387.533 319.441 387.692 319.625 387.879 319.763C388.066 319.902 388.276 319.992 388.497 320.03ZM163.926 320.205C163.892 319.859 163.783 319.523 163.606 319.217C163.428 318.912 163.186 318.642 162.892 318.424C162.598 318.205 162.258 318.042 161.893 317.944C161.527 317.846 161.143 317.815 160.761 317.853C160.379 317.89 160.008 317.995 159.669 318.162C159.329 318.33 159.028 318.555 158.782 318.827C158.536 319.098 158.35 319.41 158.236 319.744C158.121 320.078 158.08 320.429 158.114 320.775C158.147 321.121 158.256 321.457 158.434 321.763C158.611 322.068 158.854 322.338 159.148 322.556C159.441 322.775 159.781 322.938 160.146 323.036C160.512 323.134 160.897 323.165 161.278 323.127C161.66 323.09 162.031 322.985 162.371 322.818C162.71 322.651 163.012 322.425 163.257 322.153C163.503 321.882 163.689 321.57 163.803 321.236C163.918 320.902 163.96 320.551 163.926 320.205ZM372.82 354.5C372.82 354.429 372.806 354.359 372.778 354.294C372.751 354.229 372.71 354.169 372.66 354.12L352.79 334.97C352.715 334.897 352.62 334.848 352.518 334.829C352.415 334.809 352.31 334.821 352.213 334.861C352.117 334.902 352.035 334.97 351.978 335.057C351.92 335.144 351.89 335.246 351.89 335.35L351.81 404.26C351.81 404.401 351.865 404.535 351.965 404.635C352.064 404.734 352.199 404.79 352.34 404.79L372.41 404.86C372.55 404.86 372.685 404.804 372.784 404.705C372.884 404.605 372.94 404.471 372.94 404.33L372.82 354.5ZM203.95 335.89C202.75 337.537 201.496 338.957 200.19 340.15C195.656 344.263 191.14 348.52 186.64 352.92C185.23 354.3 184.99 356.24 185 358.1C185.006 369.44 185.01 380.633 185.01 391.68C185.01 395.753 184.85 399.93 184.53 404.21C184.496 404.63 184.69 404.847 185.11 404.86L203.9 405.33C204.42 405.343 204.693 405.09 204.72 404.57C204.773 403.55 204.806 402.527 204.82 401.5C205.166 379.773 205.13 357.983 204.71 336.13C204.69 335.29 204.436 335.21 203.95 335.89ZM350.95 474.99C350.931 475.094 350.876 475.187 350.793 475.255C350.711 475.323 350.607 475.36 350.5 475.36C330.093 475.087 309.91 475.217 289.95 475.75C289.765 475.754 289.582 475.797 289.415 475.876C289.247 475.955 289.097 476.068 288.975 476.208C288.853 476.348 288.761 476.512 288.705 476.689C288.649 476.867 288.63 477.055 288.65 477.24C288.78 478.41 289.98 479.05 291.01 479.31C295.003 480.317 298.866 481.367 302.6 482.46C308.42 484.173 313.163 487.467 316.83 492.34C316.979 492.54 317.186 492.69 317.422 492.768C317.658 492.847 317.912 492.851 318.15 492.78C335.476 487.747 353.336 482.9 371.73 478.24C372.075 478.151 372.383 477.951 372.605 477.671C372.827 477.392 372.951 477.047 372.96 476.69C373.44 454.36 372.95 432.42 373.01 411.27C373.01 410.937 372.846 410.767 372.52 410.76L352.31 410.44C351.936 410.44 351.75 410.627 351.75 411C351.703 431.633 351.623 450.97 351.51 469.01C351.496 471.097 351.31 473.09 350.95 474.99Z" fill="#829FE8"/>
<path d="M338.95 277.46C339.04 280.22 338.26 285.96 339.6 288C340.62 289.56 342.447 291.38 345.08 293.46C346.094 294.267 347.244 294.807 348.53 295.08C350.557 295.513 352.24 296.447 353.58 297.88C353.894 298.213 354.08 298.153 354.14 297.7L354.43 295.29L354.37 301.02C354.364 301.353 354.29 301.67 354.15 301.97C353.85 302.61 353.93 303.2 354.39 303.74C361.557 312.16 369.687 320.403 378.78 328.47C382.374 331.663 385.79 334.817 389.03 337.93C389.424 338.31 389.81 338.683 390.19 339.05C394.397 343.09 398.827 347.233 403.48 351.48C406.3 354.05 408.6 356.86 411.9 358.86C412.407 359.167 412.74 359.603 412.9 360.17C412.927 360.264 412.931 360.363 412.912 360.458C412.894 360.554 412.854 360.644 412.795 360.722C412.735 360.8 412.659 360.862 412.572 360.905C412.484 360.948 412.388 360.971 412.29 360.97C410.344 360.977 408.734 360.243 407.46 358.77C407.227 358.497 406.944 358.303 406.61 358.19C405.09 357.65 403.874 356.797 402.96 355.63C402.134 354.563 401.157 353.57 400.03 352.65C388.137 342.903 376.957 333.103 366.49 323.25C365.19 322.023 363.954 320.957 362.78 320.05C359.13 317.23 355.82 314.03 352.25 311C348.55 307.87 345.14 303.35 341.31 299.91C333.17 292.61 325.57 285.46 317.35 277.21C305.53 265.33 293.387 253.847 280.92 242.76C280.649 242.521 280.299 242.392 279.937 242.4C279.576 242.407 279.231 242.55 278.97 242.8C273.444 248.107 267.724 253.44 261.81 258.8C255.43 264.59 249.51 270.91 242.97 276.64C241.19 278.19 239.81 280.19 238.16 281.9C231.32 288.97 223.71 294.95 216.7 301.99C208.05 310.67 198.4 318.69 189.34 327.09C184.33 331.73 178.7 335.75 173.65 340.4C165.77 347.66 157.81 354.527 149.77 361C149.11 361.54 148.45 361.537 147.79 360.99L147.42 360.68C147.284 360.568 147.173 360.429 147.094 360.272C147.014 360.115 146.968 359.943 146.959 359.767C146.949 359.591 146.977 359.415 147.039 359.251C147.101 359.086 147.197 358.936 147.32 358.81C149.26 356.84 151.54 355.35 153.5 353.35C158.047 348.717 162.844 344.253 167.89 339.96C174.61 334.24 181.06 328.05 187.21 321.96C188.75 320.43 191.35 317.6 191.39 315.3C192.024 315.547 192.607 315.163 193.14 314.15C193.86 312.777 194.294 311.893 194.44 311.5C194.294 312.167 194.244 312.53 194.29 312.59C194.39 312.718 194.516 312.823 194.659 312.898C194.803 312.974 194.961 313.017 195.123 313.027C195.284 313.036 195.446 313.011 195.598 312.953C195.749 312.895 195.886 312.805 196 312.69C198.367 310.263 200.75 307.827 203.15 305.38C209.37 299.03 216.59 293.66 222.38 287.18C225.994 283.133 229.587 279.51 233.16 276.31C236.074 273.697 239.014 270.99 241.98 268.19C244.9 265.423 247.714 262.637 250.42 259.83C253.794 256.317 257.08 252.917 260.28 249.63C266.54 243.2 273.4 237.32 279.65 230.63C279.762 230.512 279.916 230.442 280.079 230.437C280.242 230.431 280.4 230.49 280.52 230.6C294.534 243.78 308.194 257.147 321.5 270.7C324.054 273.307 326.717 275.847 329.49 278.32C332.31 280.84 334.98 283.4 337.5 286C337.594 286.099 337.716 286.168 337.849 286.198C337.983 286.228 338.122 286.218 338.249 286.168C338.377 286.119 338.487 286.033 338.565 285.921C338.644 285.809 338.687 285.677 338.69 285.54L338.95 277.46ZM352.307 300.941C352.383 300.862 352.386 300.713 352.314 300.503C352.242 300.294 352.098 300.028 351.889 299.721C351.681 299.414 351.412 299.071 351.098 298.713C350.784 298.354 350.432 297.987 350.061 297.633C349.311 296.916 348.531 296.293 347.892 295.9C347.253 295.508 346.807 295.378 346.653 295.539C346.577 295.618 346.575 295.767 346.647 295.977C346.718 296.186 346.862 296.452 347.071 296.759C347.28 297.067 347.549 297.409 347.862 297.767C348.176 298.126 348.529 298.493 348.9 298.847C349.65 299.564 350.43 300.187 351.069 300.58C351.708 300.972 352.153 301.102 352.307 300.941Z" fill="#FBFAFA"/>
<path d="M242.86 246.54C244.484 246.54 245.8 245.224 245.8 243.6C245.8 241.976 244.484 240.66 242.86 240.66C241.236 240.66 239.92 241.976 239.92 243.6C239.92 245.224 241.236 246.54 242.86 246.54Z" fill="#FBFAFA"/>
<path d="M190.176 255.228C191.71 256.095 193.586 255.68 194.366 254.301C195.147 252.921 194.536 251.1 193.003 250.232C191.47 249.365 189.594 249.78 188.813 251.159C188.033 252.539 188.643 254.36 190.176 255.228Z" fill="#FBFAFA"/>
<path d="M223.09 252.66L223.02 269.67C223.02 269.837 222.987 270.002 222.922 270.155C222.858 270.309 222.763 270.448 222.644 270.565C222.524 270.681 222.383 270.773 222.228 270.834C222.073 270.895 221.907 270.924 221.74 270.92L208.79 270.68C208.462 270.672 208.151 270.536 207.922 270.3C207.694 270.064 207.568 269.748 207.57 269.42L207.8 252.83C207.806 252.505 207.937 252.196 208.166 251.966C208.396 251.736 208.706 251.605 209.03 251.6L221.83 251.41C221.995 251.409 222.159 251.44 222.312 251.502C222.465 251.564 222.604 251.656 222.721 251.773C222.838 251.889 222.931 252.027 222.994 252.179C223.058 252.332 223.09 252.495 223.09 252.66Z" fill="#FBFAFA"/>
<path d="M354.43 295.29L354.14 297.7C354.08 298.153 353.893 298.213 353.58 297.88C352.24 296.447 350.556 295.513 348.53 295.08C347.243 294.807 346.093 294.267 345.08 293.46C342.446 291.38 340.62 289.56 339.6 288C338.26 285.96 339.04 280.22 338.95 277.46L338.88 253.07C338.878 252.963 338.898 252.856 338.938 252.757C338.979 252.658 339.038 252.567 339.113 252.491C339.189 252.414 339.278 252.354 339.377 252.313C339.476 252.271 339.582 252.25 339.69 252.25L354.32 252.24C354.382 252.239 354.443 252.25 354.501 252.273C354.559 252.296 354.611 252.331 354.655 252.375C354.699 252.419 354.734 252.471 354.757 252.529C354.78 252.586 354.791 252.648 354.79 252.71L354.43 295.29Z" fill="#FBFAFA"/>
<path d="M362.931 274.54C362.911 281.027 362.804 287.513 362.611 294C362.584 294.753 362.358 295.587 361.931 296.5C361.058 298.38 360.458 298.293 360.131 296.24C359.231 290.47 359.111 284.29 359.421 278.01C359.774 270.823 359.708 262.987 359.221 254.5C359.202 254.165 359.309 253.834 359.521 253.57C360.034 252.937 360.598 252.71 361.211 252.89C361.431 252.952 361.628 253.078 361.779 253.252C361.93 253.426 362.028 253.64 362.061 253.87C363.071 260.57 362.951 267.52 362.931 274.54Z" fill="#FBFAFA"/>
<path d="M327.9 256.422C327.64 257.284 327.93 258.134 328.549 258.32C329.168 258.507 329.88 257.96 330.14 257.098C330.4 256.236 330.11 255.386 329.491 255.2C328.873 255.013 328.16 255.56 327.9 256.422Z" fill="#FBFAFA"/>
<path d="M323.87 374.19C330.317 375.103 337.207 375.6 344.54 375.68C344.897 375.685 345.238 375.83 345.489 376.082C345.739 376.335 345.88 376.675 345.88 377.03L345.78 405.19C345.78 405.67 345.54 405.933 345.06 405.98C341.813 406.293 338.483 406.52 335.07 406.66C334.977 406.667 334.93 406.713 334.93 406.8C334.93 406.887 334.973 406.937 335.06 406.95C338.44 407.283 341.81 407.71 345.17 408.23C345.503 408.283 345.677 408.48 345.69 408.82C345.77 410.787 345.817 412.827 345.83 414.94C345.923 432.4 345.873 450.05 345.68 467.89C345.676 468.07 345.607 468.242 345.486 468.374C345.364 468.507 345.199 468.591 345.02 468.61C343.247 468.79 341.527 468.873 339.86 468.86C326.053 468.753 311.153 468.69 295.16 468.67C290.34 468.663 285.483 468.753 280.59 468.94C280.391 468.946 280.197 468.997 280.02 469.088C279.843 469.179 279.689 469.308 279.568 469.466C279.448 469.624 279.364 469.807 279.323 470.001C279.281 470.196 279.284 470.397 279.33 470.59L280.89 477.12C280.905 477.181 280.904 477.245 280.888 477.306C280.871 477.367 280.839 477.423 280.795 477.468C280.751 477.513 280.696 477.546 280.636 477.564C280.576 477.582 280.512 477.584 280.45 477.57C270.59 475.18 260.24 472 250.47 469.74C242.81 467.967 235.153 466.213 227.5 464.48C221.91 463.22 216.93 464.03 211.59 465.42C211.515 465.439 211.436 465.441 211.36 465.424C211.284 465.407 211.213 465.373 211.153 465.324C211.094 465.275 211.047 465.213 211.017 465.143C210.987 465.072 210.974 464.996 210.98 464.92C211.12 462.653 211.193 460.347 211.2 458C211.24 442.107 211.267 426.297 211.28 410.57C211.283 410.186 211.415 409.814 211.655 409.514C211.894 409.215 212.227 409.005 212.6 408.92C215.04 408.36 217.817 408.087 220.93 408.1C221.983 408.107 222.983 407.87 223.93 407.39C224.557 407.077 224.52 406.937 223.82 406.97C220.16 407.143 216.37 406.977 212.45 406.47C212.113 406.428 211.803 406.265 211.579 406.011C211.354 405.757 211.23 405.429 211.23 405.09V376.18C211.23 375.64 211.497 375.357 212.03 375.33C217.15 375.057 222.057 374.73 226.75 374.35C227.877 374.263 228.97 374.103 230.03 373.87C231.19 373.623 231.18 373.43 230 373.29C224.093 372.603 218.01 372.263 211.75 372.27C211.383 372.27 211.2 372.087 211.2 371.72L211.28 337.01C211.28 336.887 211.329 336.769 211.417 336.681C211.505 336.593 211.624 336.543 211.75 336.54C218.27 336.353 224.773 335.767 231.26 334.78C232.207 334.633 232.21 334.453 231.27 334.24C228.34 333.58 225.41 332.83 222.41 332.65C219.137 332.45 215.857 332.163 212.57 331.79C211.65 331.683 211.3 331.183 211.52 330.29C211.773 329.25 212.323 328.377 213.17 327.67C214.837 326.277 216.363 324.933 217.75 323.64C231.217 311.087 247.257 295.45 265.87 276.73C269.75 272.83 273.84 269.26 277.63 265.37C278.357 264.63 279.167 263.997 280.06 263.47C280.255 263.355 280.482 263.309 280.705 263.338C280.928 263.367 281.134 263.47 281.29 263.63C295.28 277.89 310.12 292.1 323.46 305.8C329.54 312.047 336.607 318.893 344.66 326.34C345.56 327.167 346.217 328.123 346.63 329.21C347.223 330.77 346.697 331.687 345.05 331.96C339.157 332.947 333.173 333.723 327.1 334.29C326.113 334.383 326.11 334.493 327.09 334.62C332.763 335.36 338.567 335.65 344.5 335.49C344.645 335.486 344.789 335.511 344.924 335.563C345.059 335.616 345.182 335.694 345.287 335.795C345.391 335.895 345.474 336.016 345.531 336.149C345.589 336.282 345.619 336.425 345.62 336.57L345.79 371.43C345.79 371.857 345.58 372.11 345.16 372.19C343.647 372.477 342.093 372.673 340.5 372.78C335.16 373.147 329.617 373.547 323.87 373.98C323.223 374.027 323.223 374.097 323.87 374.19ZM276.67 336.32C276.892 336.315 277.103 336.223 277.258 336.064C277.413 335.905 277.5 335.692 277.5 335.47L277.51 318.75C277.51 318.525 277.42 318.308 277.261 318.149C277.102 317.99 276.885 317.9 276.66 317.9L259.28 317.91C259.168 317.91 259.056 317.932 258.952 317.976C258.849 318.019 258.754 318.082 258.675 318.162C258.596 318.242 258.534 318.337 258.492 318.442C258.45 318.546 258.429 318.658 258.43 318.77L258.73 335.89C258.731 336.002 258.755 336.114 258.799 336.217C258.844 336.32 258.909 336.414 258.99 336.492C259.07 336.57 259.166 336.631 259.271 336.672C259.376 336.713 259.488 336.733 259.6 336.73L276.67 336.32ZM298.844 318.747C298.845 318.645 298.825 318.543 298.786 318.448C298.748 318.353 298.691 318.267 298.619 318.194C298.547 318.121 298.461 318.064 298.366 318.024C298.272 317.984 298.171 317.963 298.068 317.963L281.728 317.877C281.626 317.877 281.524 317.896 281.43 317.935C281.335 317.974 281.248 318.031 281.176 318.103C281.103 318.175 281.045 318.261 281.005 318.355C280.966 318.449 280.945 318.551 280.944 318.653L280.856 335.533C280.855 335.635 280.875 335.737 280.914 335.832C280.952 335.927 281.009 336.013 281.081 336.086C281.153 336.159 281.239 336.216 281.334 336.256C281.428 336.296 281.529 336.317 281.632 336.317L297.972 336.403C298.074 336.403 298.176 336.384 298.27 336.345C298.365 336.306 298.452 336.249 298.524 336.177C298.597 336.105 298.655 336.019 298.695 335.925C298.734 335.83 298.755 335.729 298.756 335.627L298.844 318.747ZM277.75 340.06C277.753 339.93 277.73 339.801 277.682 339.68C277.635 339.558 277.564 339.448 277.474 339.354C277.384 339.26 277.276 339.185 277.157 339.133C277.038 339.081 276.91 339.053 276.78 339.05L259.92 338.7C259.788 338.697 259.657 338.721 259.535 338.77C259.413 338.818 259.301 338.891 259.207 338.983C259.113 339.075 259.038 339.185 258.987 339.306C258.936 339.428 258.91 339.558 258.91 339.69L258.87 356.82C258.87 356.953 258.896 357.084 258.948 357.206C259 357.328 259.075 357.439 259.17 357.531C259.266 357.623 259.378 357.695 259.502 357.743C259.626 357.791 259.757 357.814 259.89 357.81L276.4 357.38C276.652 357.372 276.892 357.269 277.07 357.09C277.249 356.912 277.352 356.672 277.36 356.42L277.75 340.06ZM298.49 339.938C298.492 339.798 298.466 339.658 298.413 339.528C298.361 339.397 298.284 339.278 298.186 339.178C298.088 339.077 297.971 338.997 297.841 338.942C297.712 338.886 297.573 338.857 297.433 338.855L281.974 338.666C281.69 338.663 281.417 338.772 281.214 338.97C281.011 339.169 280.895 339.439 280.891 339.723L280.69 356.162C280.688 356.302 280.714 356.442 280.767 356.572C280.819 356.703 280.896 356.822 280.994 356.922C281.092 357.023 281.209 357.103 281.339 357.158C281.468 357.214 281.607 357.243 281.747 357.245L297.206 357.434C297.49 357.437 297.763 357.328 297.966 357.13C298.169 356.931 298.285 356.661 298.289 356.377L298.49 339.938ZM299.18 370.53C299.18 370.458 299.152 370.39 299.101 370.339C299.05 370.288 298.982 370.26 298.91 370.26H258.91C258.838 370.26 258.77 370.288 258.719 370.339C258.668 370.39 258.64 370.458 258.64 370.53V416.99C258.64 417.062 258.668 417.13 258.719 417.181C258.77 417.232 258.838 417.26 258.91 417.26H298.91C298.982 417.26 299.05 417.232 299.101 417.181C299.152 417.13 299.18 417.062 299.18 416.99V370.53Z" fill="#FBFAFA"/>
<path d="M365.24 275.61C364.514 275.117 364.012 274.356 363.846 273.494C363.679 272.632 363.86 271.739 364.35 271.01L365.54 269.24C366.157 268.327 366.937 267.537 367.836 266.915C368.734 266.294 369.735 265.853 370.779 265.618C371.824 265.383 372.893 265.359 373.924 265.546C374.955 265.733 375.929 266.129 376.79 266.71L377.37 267.1C378.232 267.681 378.964 268.435 379.524 269.322C380.085 270.208 380.462 271.208 380.636 272.265C380.81 273.321 380.776 274.414 380.536 275.481C380.297 276.547 379.857 277.566 379.24 278.48L378.04 280.24C377.549 280.968 376.789 281.472 375.926 281.64C375.064 281.809 374.17 281.629 373.44 281.14L365.24 275.61Z" fill="#FBFAFA"/>
<path d="M223.508 279.845C224.27 280.922 225.638 281.265 226.562 280.611C227.486 279.956 227.616 278.553 226.854 277.475C226.091 276.398 224.724 276.055 223.8 276.709C222.876 277.364 222.745 278.767 223.508 279.845Z" fill="#FBFAFA"/>
<path d="M185.491 284.09L185.531 293.29C185.534 293.585 185.42 293.87 185.214 294.081C185.008 294.293 184.726 294.415 184.431 294.42L178.041 294.51C177.747 294.513 177.464 294.4 177.253 294.196C177.042 293.992 176.919 293.714 176.911 293.42L176.721 284.58C176.715 284.293 176.82 284.014 177.013 283.802C177.207 283.59 177.474 283.46 177.761 283.44L184.291 282.98C184.444 282.969 184.597 282.99 184.742 283.04C184.886 283.091 185.019 283.171 185.131 283.275C185.244 283.379 185.334 283.505 185.396 283.645C185.458 283.785 185.49 283.937 185.491 284.09Z" fill="#FBFAFA"/>
<path d="M385.449 291.31C385.203 291.683 385.043 291.65 384.969 291.21L383.999 285.25C383.879 284.503 384.196 284.147 384.949 284.18C385.376 284.193 385.779 284.283 386.159 284.45C387.179 284.897 387.603 285.667 387.429 286.76C387.203 288.18 386.543 289.697 385.449 291.31Z" fill="#FBFAFA"/>
<path d="M381.939 292.78C381.006 290.773 380.346 288.843 379.959 286.99C379.799 286.25 380.046 285.69 380.699 285.31L381.279 284.96C381.966 284.553 382.303 284.75 382.289 285.55L382.139 292.74C382.133 293.033 382.066 293.047 381.939 292.78Z" fill="#FBFAFA"/>
<path d="M200.289 287.54L201.839 299.29C201.848 299.352 201.843 299.415 201.825 299.476C201.806 299.536 201.775 299.591 201.733 299.638C201.691 299.684 201.64 299.721 201.582 299.746C201.524 299.77 201.462 299.782 201.399 299.78L189.129 299.27C189.045 299.268 188.964 299.242 188.894 299.195C188.825 299.148 188.771 299.081 188.739 299.004C188.707 298.926 188.699 298.841 188.715 298.758C188.731 298.676 188.771 298.6 188.829 298.54L199.549 287.3C199.605 287.241 199.676 287.198 199.755 287.178C199.834 287.158 199.918 287.16 199.995 287.185C200.073 287.211 200.142 287.257 200.194 287.32C200.246 287.383 200.279 287.459 200.289 287.54Z" fill="#FBFAFA"/>
<path d="M381.35 311.85C378.23 310.68 375.27 307.85 372.97 305.52C370.07 302.58 366.33 300.07 362.47 298.42C362.403 298.394 362.345 298.351 362.3 298.295C362.255 298.239 362.225 298.172 362.214 298.102C362.203 298.031 362.21 297.958 362.236 297.891C362.262 297.824 362.305 297.765 362.36 297.72C363.227 297 363.99 296.16 364.65 295.2C367.3 291.37 372.77 290.96 377.07 291.93C384.12 293.51 383.03 306.27 382.38 311.23C382.367 311.344 382.327 311.454 382.265 311.55C382.202 311.647 382.118 311.728 382.019 311.788C381.92 311.848 381.808 311.884 381.692 311.895C381.576 311.906 381.459 311.89 381.35 311.85Z" fill="#FBFAFA"/>
<path d="M348.9 298.847C350.462 300.339 351.987 301.277 352.308 300.941C352.628 300.606 351.622 299.125 350.061 297.633C348.5 296.141 346.975 295.203 346.654 295.539C346.334 295.874 347.339 297.355 348.9 298.847Z" fill="#829FE8"/>
<path d="M176.908 308.21C177.065 310.513 178.899 312.264 181.004 312.12C183.108 311.977 184.687 309.993 184.53 307.69C184.373 305.387 182.54 303.636 180.435 303.78C178.33 303.923 176.751 305.907 176.908 308.21Z" fill="#FBFAFA"/>
<path d="M194.44 311.5C194.294 311.893 193.86 312.777 193.14 314.15C192.607 315.163 192.024 315.547 191.39 315.3L189.53 312.48C189.387 312.261 189.296 312.012 189.264 311.752C189.233 311.492 189.262 311.229 189.349 310.982C189.436 310.735 189.579 310.512 189.766 310.33C189.954 310.147 190.181 310.01 190.43 309.93C191.71 309.52 194.65 309.28 194.44 311.5Z" fill="#FBFAFA"/>
<path d="M387.163 317.682C386.969 318.82 387.566 319.871 388.497 320.03C389.428 320.189 390.34 319.396 390.535 318.258C390.729 317.12 390.132 316.069 389.201 315.91C388.27 315.751 387.358 316.544 387.163 317.682Z" fill="#FBFAFA"/>
<path d="M161.279 323.127C162.884 322.97 164.069 321.662 163.926 320.205C163.783 318.748 162.367 317.695 160.762 317.853C159.157 318.01 157.971 319.318 158.114 320.775C158.257 322.231 159.674 323.285 161.279 323.127Z" fill="#FBFAFA"/>
<path d="M276.67 336.32L259.6 336.73C259.487 336.733 259.375 336.713 259.271 336.672C259.166 336.631 259.07 336.57 258.989 336.492C258.908 336.414 258.844 336.32 258.799 336.217C258.755 336.114 258.731 336.003 258.73 335.89L258.43 318.77C258.428 318.658 258.449 318.546 258.492 318.442C258.534 318.337 258.596 318.242 258.675 318.163C258.754 318.083 258.848 318.019 258.952 317.976C259.056 317.932 259.167 317.91 259.28 317.91L276.66 317.9C276.885 317.9 277.101 317.99 277.261 318.149C277.42 318.308 277.51 318.525 277.51 318.75L277.5 335.47C277.5 335.692 277.413 335.905 277.258 336.064C277.103 336.223 276.892 336.315 276.67 336.32Z" fill="#829FE8"/>
<path d="M298.069 317.963L281.729 317.877C281.298 317.875 280.947 318.223 280.945 318.653L280.857 335.533C280.854 335.964 281.202 336.315 281.633 336.317L297.972 336.403C298.403 336.405 298.754 336.058 298.757 335.627L298.845 318.747C298.847 318.316 298.5 317.965 298.069 317.963Z" fill="#829FE8"/>
<path d="M372.821 354.5L372.941 404.33C372.941 404.471 372.885 404.605 372.785 404.705C372.686 404.804 372.551 404.86 372.411 404.86L352.341 404.79C352.2 404.79 352.065 404.734 351.966 404.635C351.866 404.535 351.811 404.401 351.811 404.26L351.891 335.35C351.89 335.246 351.921 335.144 351.979 335.057C352.036 334.97 352.118 334.902 352.214 334.861C352.31 334.821 352.416 334.809 352.519 334.829C352.621 334.848 352.716 334.897 352.791 334.97L372.661 354.12C372.711 354.169 372.752 354.229 372.779 354.294C372.807 354.359 372.821 354.429 372.821 354.5Z" fill="#FBFAFA"/>
<path d="M203.949 335.89C204.436 335.21 204.689 335.29 204.709 336.13C205.129 357.983 205.166 379.773 204.819 401.5C204.806 402.527 204.772 403.55 204.719 404.57C204.692 405.09 204.419 405.343 203.899 405.33L185.109 404.86C184.689 404.847 184.496 404.63 184.529 404.21C184.849 399.93 185.009 395.753 185.009 391.68C185.009 380.633 185.006 369.44 184.999 358.1C184.989 356.24 185.229 354.3 186.639 352.92C191.139 348.52 195.656 344.263 200.189 340.15C201.496 338.957 202.749 337.537 203.949 335.89Z" fill="#FBFAFA"/>
<path d="M277.749 340.06L277.359 356.42C277.352 356.672 277.248 356.912 277.07 357.091C276.891 357.269 276.651 357.372 276.399 357.38L259.889 357.81C259.757 357.814 259.625 357.791 259.501 357.743C259.377 357.696 259.265 357.623 259.17 357.531C259.075 357.439 258.999 357.328 258.947 357.206C258.896 357.084 258.869 356.953 258.869 356.82L258.909 339.69C258.909 339.558 258.935 339.428 258.986 339.306C259.037 339.185 259.112 339.075 259.206 338.983C259.3 338.891 259.412 338.818 259.534 338.77C259.657 338.721 259.787 338.697 259.919 338.7L276.779 339.05C276.909 339.053 277.037 339.081 277.157 339.133C277.276 339.185 277.383 339.26 277.473 339.354C277.563 339.448 277.634 339.558 277.681 339.68C277.729 339.801 277.752 339.93 277.749 340.06Z" fill="#829FE8"/>
<path d="M297.433 338.855L281.974 338.666C281.383 338.659 280.898 339.132 280.891 339.723L280.69 356.162C280.683 356.753 281.156 357.238 281.747 357.245L297.206 357.434C297.797 357.441 298.282 356.968 298.289 356.377L298.49 339.938C298.497 339.347 298.024 338.862 297.433 338.855Z" fill="#829FE8"/>
<path d="M298.911 370.26H258.911C258.761 370.26 258.641 370.381 258.641 370.53V416.99C258.641 417.139 258.761 417.26 258.911 417.26H298.911C299.06 417.26 299.181 417.139 299.181 416.99V370.53C299.181 370.381 299.06 370.26 298.911 370.26Z" fill="#829FE8"/>
<path d="M350.95 474.99C351.31 473.09 351.497 471.097 351.51 469.01C351.623 450.97 351.703 431.633 351.75 411C351.75 410.627 351.937 410.44 352.31 410.44L372.52 410.76C372.847 410.767 373.01 410.937 373.01 411.27C372.95 432.42 373.44 454.36 372.96 476.69C372.952 477.047 372.827 477.392 372.605 477.671C372.383 477.951 372.076 478.151 371.73 478.24C353.337 482.9 335.477 487.747 318.15 492.78C317.912 492.851 317.659 492.847 317.422 492.768C317.186 492.69 316.98 492.54 316.83 492.34C313.163 487.467 308.42 484.173 302.6 482.46C298.867 481.367 295.003 480.317 291.01 479.31C289.98 479.05 288.78 478.41 288.65 477.24C288.631 477.055 288.649 476.867 288.706 476.689C288.762 476.512 288.854 476.348 288.976 476.208C289.098 476.068 289.248 475.955 289.415 475.876C289.583 475.797 289.765 475.754 289.95 475.75C309.91 475.217 330.093 475.087 350.5 475.36C350.608 475.36 350.712 475.323 350.794 475.255C350.876 475.187 350.931 475.094 350.95 474.99Z" fill="#FBFAFA"/>
<path d="M352.11 610.83C345.663 613.297 339.013 615.097 332.16 616.23L352.11 610.83Z" fill="#7B7773"/>
<path d="M330.11 616.77C329.203 617.243 328.223 617.507 327.17 617.56C327.663 616.847 328.643 616.583 330.11 616.77Z" fill="#7B7773"/>
</svg>
